<svg xmlns="http://www.w3.org/2000/svg" viewBox="0 0 64 64" role="img" aria-label="Sunna Blog">
  <defs>
    <linearGradient id="g" x1="8" y1="8" x2="56" y2="56" gradientUnits="userSpaceOnUse">
      <stop stop-color="#2e75ff"/>
      <stop offset="1" stop-color="#101827"/>
    </linearGradient>
  </defs>
  <rect width="64" height="64" rx="18" fill="url(#g)"/>
  <path d="M22 40.3c2.6 2.6 6.1 3.9 10.6 3.9 4.2 0 7.4-1 9.6-3 2.2-2 3.3-4.5 3.3-7.5 0-2.6-.8-4.7-2.5-6.2-1.7-1.5-4.3-2.7-7.9-3.5l-3.8-.9c-1.9-.4-3.2-.9-3.9-1.5-.7-.6-1.1-1.4-1.1-2.3 0-1.1.5-2 1.5-2.7 1-.7 2.4-1 4.2-1 2.9 0 5.5 1 7.8 3.1l4.3-5.3c-3.1-2.8-7.1-4.2-12-4.2-4 0-7.1 1-9.4 3-2.3 2-3.4 4.5-3.4 7.5 0 2.7.9 4.8 2.6 6.4 1.8 1.6 4.4 2.7 8 3.5l3.7.8c1.8.4 3.1.9 3.8 1.5.7.6 1.1 1.4 1.1 2.5 0 1.2-.5 2.2-1.6 2.9-1.1.7-2.6 1.1-4.7 1.1-3.3 0-6.2-1.2-8.7-3.7L22 40.3Z" fill="white"/>
</svg>
