<?xml version="1.0" encoding="UTF-8"?>
<!DOCTYPE svg PUBLIC "-//W3C//DTD SVG 1.1//EN" "http://www.w3.org/Graphics/SVG/1.1/DTD/svg11.dtd">
<svg xmlns="http://www.w3.org/2000/svg" version="1.1" width="419px" height="326px" style="shape-rendering:geometricPrecision; text-rendering:geometricPrecision; image-rendering:optimizeQuality; fill-rule:evenodd; clip-rule:evenodd" xmlns:xlink="http://www.w3.org/1999/xlink">
<g><path style="opacity:1" fill="#171421" d="M 235.5,15.5 C 226.01,15.7633 216.343,15.93 206.5,16C 197.666,17.4246 188.666,18.5912 179.5,19.5C 187.189,17.0491 195.189,15.5491 203.5,15C 214.183,14.3541 224.85,14.5207 235.5,15.5 Z"/></g>
<g><path style="opacity:1" fill="#1e243e" d="M 235.5,15.5 C 288.751,24.2713 326.918,52.9379 350,101.5C 352.34,107.019 354.173,112.686 355.5,118.5C 359.57,136.066 361.903,153.733 362.5,171.5C 362.5,172.167 362.5,172.833 362.5,173.5C 359.351,180.066 357.351,187.066 356.5,194.5C 357.229,196.595 356.563,198.428 354.5,200C 356.165,204.572 355.165,208.905 351.5,213C 351.833,213.333 352.167,213.667 352.5,214C 349.695,217.244 348.362,221.077 348.5,225.5C 343.663,236.522 337.329,246.522 329.5,255.5C 328.5,255.5 327.5,255.5 326.5,255.5C 326.5,256.5 326.5,257.5 326.5,258.5C 323.679,258.316 322.012,259.649 321.5,262.5C 319.659,263.23 317.825,263.897 316,264.5C 315.5,264 315,263.5 314.5,263C 318.037,261.174 318.371,258.84 315.5,256C 316.5,255.667 317.5,255.333 318.5,255C 317.289,254.213 316.289,253.546 315.5,253C 316.703,249.447 318.87,246.614 322,244.5C 322.333,245.167 322.667,245.833 323,246.5C 323.5,245.333 324.333,244.5 325.5,244C 324.269,242.817 324.269,241.651 325.5,240.5C 326.814,239.687 327.981,238.687 329,237.5C 329.333,238.167 329.667,238.833 330,239.5C 332.029,236.971 333.862,234.304 335.5,231.5C 334.415,230.216 333.748,228.716 333.5,227C 335.216,224.429 336.216,220.929 336.5,216.5C 336.5,216.167 336.5,215.833 336.5,215.5C 337.675,215.719 338.675,215.386 339.5,214.5C 340.577,212.088 341.744,209.754 343,207.5C 343.651,205.765 343.485,204.098 342.5,202.5C 343.711,201.126 344.711,199.626 345.5,198C 345.402,195.48 345.402,192.98 345.5,190.5C 346.313,189.186 347.313,188.019 348.5,187C 349.589,178.205 349.589,169.205 348.5,160C 348.939,155.693 349.939,151.526 351.5,147.5C 351.263,144.937 350.763,144.937 350,147.5C 349.323,143.593 348.49,139.759 347.5,136C 348.258,134.636 347.758,133.469 346,132.5C 345.166,128.998 344.333,125.498 343.5,122C 343.164,120.97 342.497,120.47 341.5,120.5C 340.323,118.321 339.323,115.987 338.5,113.5C 330.481,92.4838 317.814,74.8171 300.5,60.5C 299.118,57.2788 296.785,54.7788 293.5,53C 293.833,52.6667 294.167,52.3333 294.5,52C 290.929,51.9817 288.596,50.315 287.5,47C 284.29,44.9605 280.957,43.1272 277.5,41.5C 276.914,41.7093 276.414,42.0426 276,42.5C 272.32,40.293 268.486,38.4597 264.5,37C 264.833,36.6667 265.167,36.3333 265.5,36C 254.754,32.2066 243.421,29.7066 231.5,28.5C 229.631,28.5068 227.964,28.8401 226.5,29.5C 226.167,29.5 225.833,29.5 225.5,29.5C 217.331,27.6369 208.998,26.9702 200.5,27.5C 197.686,28.7675 194.686,29.6008 191.5,30C 190.944,30.3826 190.611,30.8826 190.5,31.5C 182.143,33.6732 173.809,36.0066 165.5,38.5C 159.758,39.194 154.591,41.194 150,44.5C 149.667,44.1667 149.333,43.8333 149,43.5C 147.545,45.5932 145.712,47.2599 143.5,48.5C 137.831,49.6556 133.331,52.6556 130,57.5C 129.586,57.0426 129.086,56.7093 128.5,56.5C 125.846,60.146 124.013,59.4793 123,54.5C 119.877,56.6205 117.043,59.1205 114.5,62C 117.468,64.1349 119.968,63.6349 122,60.5C 123.059,60.6301 123.892,61.1301 124.5,62C 122.612,64.1896 120.445,66.0229 118,67.5C 117.152,71.0171 115.152,73.6837 112,75.5C 111.392,77.1545 110.892,78.8211 110.5,80.5C 107.448,82.6406 104.114,85.4739 100.5,89C 101.276,90.7698 101.11,92.6031 100,94.5C 99.6667,94.1667 99.3333,93.8333 99,93.5C 98.1342,98.6782 95.9676,103.178 92.5,107C 93.6341,108.016 93.3008,108.683 91.5,109C 92.2524,109.671 92.5858,110.504 92.5,111.5C 87.8891,115.736 85.7225,121.07 86,127.5C 84.3005,129.388 83.8005,131.388 84.5,133.5C 84,134.5 83.5,135.5 83,136.5C 81.0948,153.164 81.0948,169.831 83,186.5C 84.0437,187.623 84.7104,188.956 85,190.5C 84.9794,199.288 87.4794,207.121 92.5,214C 91.3659,215.016 91.6992,215.683 93.5,216C 92.3909,217.813 93.0576,218.646 95.5,218.5C 95.5,218.833 95.5,219.167 95.5,219.5C 95.6748,223.825 95.8415,228.159 96,232.5C 93.1899,232.381 90.3566,232.214 87.5,232C 84.9456,229.165 84.9456,226.331 87.5,223.5C 87.1667,221.167 86.1667,220.833 84.5,222.5C 84.2635,221.753 83.9302,220.92 83.5,220C 82.5,219.667 81.5,219.333 80.5,219C 80.8333,218.667 81.1667,218.333 81.5,218C 79.5723,214.369 77.5723,210.869 75.5,207.5C 68.9458,187.785 66.7791,167.452 69,146.5C 69.7418,140.045 70.9084,133.712 72.5,127.5C 74.335,126.878 75.5017,125.544 76,123.5C 76.3987,116.308 78.3987,109.641 82,103.5C 83.3333,102.833 84.3333,101.833 85,100.5C 86.1365,94.0998 88.9698,88.5998 93.5,84C 93.1667,83.6667 92.8333,83.3333 92.5,83C 94.2189,81.1295 95.2189,78.9628 95.5,76.5C 115.932,46.5981 143.932,27.5981 179.5,19.5C 188.666,18.5912 197.666,17.4246 206.5,16C 216.343,15.93 226.01,15.7633 235.5,15.5 Z"/></g>
<g><path style="opacity:1" fill="#1a3041" d="M 225.5,29.5 C 213.774,29.2805 202.108,29.9472 190.5,31.5C 190.611,30.8826 190.944,30.3826 191.5,30C 194.686,29.6008 197.686,28.7675 200.5,27.5C 208.998,26.9702 217.331,27.6369 225.5,29.5 Z"/></g>
<g><path style="opacity:1" fill="#9cd1d2" d="M 225.5,29.5 C 225.833,29.5 226.167,29.5 226.5,29.5C 254.193,32.6816 278.859,43.015 300.5,60.5C 317.814,74.8171 330.481,92.4838 338.5,113.5C 332.5,113.5 326.5,113.5 320.5,113.5C 315.583,97.4977 307.917,82.9977 297.5,70C 294.338,69.3985 291.338,69.8985 288.5,71.5C 286.043,68.7136 283.043,66.7136 279.5,65.5C 277.845,66.228 276.179,66.3947 274.5,66C 265.795,58.1248 255.795,52.6248 244.5,49.5C 223.179,42.873 202.846,45.2064 183.5,56.5C 180.489,57.6693 177.822,59.336 175.5,61.5C 169.871,65.794 164.537,70.4607 159.5,75.5C 158.842,72.8445 158.175,70.1778 157.5,67.5C 157.667,66.5 157.833,65.5 158,64.5C 158.654,65.6956 159.154,65.6956 159.5,64.5C 154.639,63.4507 149.805,62.4507 145,61.5C 144.5,62 144,62.5 143.5,63C 144.895,66.381 147.062,69.2143 150,71.5C 150.483,72.448 150.649,73.448 150.5,74.5C 148.173,74.2471 146.173,74.9137 144.5,76.5C 143.526,74.2573 143.192,71.924 143.5,69.5C 138.066,69.5409 134.4,72.0409 132.5,77C 131.552,77.4828 130.552,77.6495 129.5,77.5C 129.5,78.5 129.5,79.5 129.5,80.5C 128.5,80.5 127.5,80.5 126.5,80.5C 126.649,81.552 126.483,82.552 126,83.5C 124.333,84.5 123,85.8333 122,87.5C 121.173,91.5411 121.34,95.5411 122.5,99.5C 123.884,96.8674 125.218,96.8674 126.5,99.5C 125.624,100.251 124.624,100.751 123.5,101C 123.943,102.518 123.276,103.685 121.5,104.5C 122.374,106.747 122.708,109.08 122.5,111.5C 122.389,112.117 122.056,112.617 121.5,113C 111.839,113.5 102.172,113.666 92.5,113.5C 92.5,112.833 92.5,112.167 92.5,111.5C 97.7392,100.683 103.739,90.3499 110.5,80.5C 125.736,62.3887 144.07,48.3887 165.5,38.5C 173.809,36.0066 182.143,33.6732 190.5,31.5C 202.108,29.9472 213.774,29.2805 225.5,29.5 Z"/></g>
<g><path style="opacity:1" fill="#1c3142" d="M 300.5,60.5 C 278.859,43.015 254.193,32.6816 226.5,29.5C 227.964,28.8401 229.631,28.5068 231.5,28.5C 243.421,29.7066 254.754,32.2066 265.5,36C 265.167,36.3333 264.833,36.6667 264.5,37C 268.486,38.4597 272.32,40.293 276,42.5C 276.414,42.0426 276.914,41.7093 277.5,41.5C 280.957,43.1272 284.29,44.9605 287.5,47C 288.596,50.315 290.929,51.9817 294.5,52C 294.167,52.3333 293.833,52.6667 293.5,53C 296.785,54.7788 299.118,57.2788 300.5,60.5 Z"/></g>
<g><path style="opacity:1" fill="#1c2d40" d="M 165.5,38.5 C 144.07,48.3887 125.736,62.3887 110.5,80.5C 110.892,78.8211 111.392,77.1545 112,75.5C 115.152,73.6837 117.152,71.0171 118,67.5C 120.445,66.0229 122.612,64.1896 124.5,62C 123.892,61.1301 123.059,60.6301 122,60.5C 119.968,63.6349 117.468,64.1349 114.5,62C 117.043,59.1205 119.877,56.6205 123,54.5C 124.013,59.4793 125.846,60.146 128.5,56.5C 129.086,56.7093 129.586,57.0426 130,57.5C 133.331,52.6556 137.831,49.6556 143.5,48.5C 145.712,47.2599 147.545,45.5932 149,43.5C 149.333,43.8333 149.667,44.1667 150,44.5C 154.591,41.194 159.758,39.194 165.5,38.5 Z"/></g>
<g><path style="opacity:1" fill="#242f3c" d="M 244.5,49.5 C 241.788,49.2625 239.288,49.2625 237,49.5C 235.333,48.8333 233.667,48.1667 232,47.5C 231.147,49.1247 230.147,49.4581 229,48.5C 228.54,50.7142 229.207,51.3808 231,50.5C 238.491,51.8283 245.657,54.1616 252.5,57.5C 253.086,57.2907 253.586,56.9574 254,56.5C 256.378,58.7421 258.544,61.0754 260.5,63.5C 244.542,53.9058 227.542,50.9058 209.5,54.5C 208.833,54.5 208.167,54.5 207.5,54.5C 201.78,55.9619 196.114,57.6286 190.5,59.5C 190.414,58.5041 190.748,57.6708 191.5,57C 194.281,56.8604 196.447,55.6937 198,53.5C 198.414,53.9574 198.914,54.2907 199.5,54.5C 201.922,52.3498 204.589,52.0165 207.5,53.5C 214.24,51.7287 220.907,50.7287 227.5,50.5C 226.659,46.4514 224.659,45.618 221.5,48C 213.182,47.5634 205.349,49.0634 198,52.5C 193.611,52.0551 189.444,53.7218 185.5,57.5C 184.817,57.1373 184.15,56.8039 183.5,56.5C 202.846,45.2064 223.179,42.873 244.5,49.5 Z"/></g>
<g><path style="opacity:1" fill="#f8f0d8" d="M 207.5,54.5 C 208.167,54.5 208.833,54.5 209.5,54.5C 219.374,54.5365 229.374,55.0365 239.5,56C 245.545,59.408 251.545,62.7413 257.5,66C 259.737,67.3996 261.404,69.233 262.5,71.5C 265.692,73.5106 269.026,75.344 272.5,77C 273.57,79.7417 275.07,82.2417 277,84.5C 278.299,84.0338 279.799,84.0338 281.5,84.5C 281.595,87.3576 282.762,89.6909 285,91.5C 285.72,93.1124 285.554,94.6124 284.5,96C 289.776,99.821 291.943,104.988 291,111.5C 290.617,112.056 290.117,112.389 289.5,112.5C 288.793,109.357 287.627,106.357 286,103.5C 284.644,102.62 283.144,102.286 281.5,102.5C 286.316,115.802 287.65,129.469 285.5,143.5C 284.542,143.953 283.708,144.619 283,145.5C 280.167,144.333 279.333,145.167 280.5,148C 278.048,149.806 278.381,151.306 281.5,152.5C 279.441,155.864 278.774,156.031 279.5,153C 277.302,151.33 276.968,149.33 278.5,147C 276.625,144.057 275.125,140.89 274,137.5C 273.617,138.056 273.117,138.389 272.5,138.5C 271.391,137.121 270.724,135.455 270.5,133.5C 272.105,122.729 271.605,112.062 269,101.5C 266.757,97.7774 265.09,93.7774 264,89.5C 261.906,86.6851 259.406,84.8518 256.5,84C 255.483,85.0495 255.316,86.2161 256,87.5C 265.644,101.657 268.978,117.324 266,134.5C 264.547,137.298 263.547,140.298 263,143.5C 260.833,145.83 259.166,148.497 258,151.5C 257.588,149.003 256.422,147.003 254.5,145.5C 251.487,148.349 248.82,151.515 246.5,155C 241.9,158.305 236.9,160.472 231.5,161.5C 231.5,163.167 231.5,164.833 231.5,166.5C 239.702,165.935 246.535,162.601 252,156.5C 253.039,157.244 253.539,158.244 253.5,159.5C 256.108,161.23 256.108,163.063 253.5,165C 254.252,165.671 254.586,166.504 254.5,167.5C 252.908,166.398 252.075,167.065 252,169.5C 250.514,175.972 251.681,181.806 255.5,187C 258.095,187.6 260.429,187.1 262.5,185.5C 261.167,187.833 261.167,190.167 262.5,192.5C 256.591,197.143 249.924,198.643 242.5,197C 240.509,197.374 238.842,198.207 237.5,199.5C 235.716,199.893 234.05,200.559 232.5,201.5C 227.602,200.787 222.602,200.121 217.5,199.5C 211.411,198.899 205.744,197.232 200.5,194.5C 204.451,190.016 204.451,185.35 200.5,180.5C 198.978,179.438 197.312,178.771 195.5,178.5C 194.955,175.187 194.455,171.854 194,168.5C 193.617,167.944 193.117,167.611 192.5,167.5C 192.167,166.833 191.833,166.167 191.5,165.5C 192.391,163.709 193.391,161.876 194.5,160C 208.15,152.681 217.984,141.847 224,127.5C 225.011,126.663 226.178,126.33 227.5,126.5C 228.322,138.461 226.988,150.128 223.5,161.5C 226.044,161.896 228.211,161.229 230,159.5C 235.355,142.464 234.355,125.797 227,109.5C 226,108.833 225,108.167 224,107.5C 219.809,125.459 210.976,140.459 197.5,152.5C 195.685,153.63 193.685,154.296 191.5,154.5C 191.666,150.154 191.499,145.821 191,141.5C 189.644,140.62 188.144,140.286 186.5,140.5C 186.22,149.886 186.553,159.22 187.5,168.5C 187.205,170.735 187.539,172.735 188.5,174.5C 190.028,196.661 199.695,214.161 217.5,227C 216.944,227.383 216.611,227.883 216.5,228.5C 199.85,229.422 186.35,223.422 176,210.5C 175.228,210.645 174.561,210.978 174,211.5C 173.506,213.134 173.34,214.801 173.5,216.5C 172.624,216.631 171.957,216.298 171.5,215.5C 170.966,213.386 169.966,211.552 168.5,210C 169.258,208.636 168.758,207.469 167,206.5C 166.023,201.777 164.856,197.111 163.5,192.5C 165.147,190.512 164.814,189.179 162.5,188.5C 162.334,179.827 162.5,171.16 163,162.5C 164.136,152.773 165.302,143.107 166.5,133.5C 163.52,133.241 161.687,134.574 161,137.5C 160.427,141.848 159.76,146.181 159,150.5C 149.116,154.216 141.95,160.883 137.5,170.5C 140.386,177.628 144.719,183.628 150.5,188.5C 151.327,190.794 150.994,193.127 149.5,195.5C 147.605,203.355 146.938,211.355 147.5,219.5C 143.785,216.452 140.452,213.119 137.5,209.5C 136.317,205.565 135.317,201.565 134.5,197.5C 130.406,201.688 127.906,206.688 127,212.5C 116.964,198.612 118.63,186.279 132,175.5C 139.538,164.028 143.371,151.361 143.5,137.5C 136.687,138.191 130.353,136.857 124.5,133.5C 132.767,130.455 139.933,125.788 146,119.5C 148.984,107.334 154.151,96.3339 161.5,86.5C 165.508,84.6578 168.341,81.6578 170,77.5C 172.597,75.1824 175.097,72.6824 177.5,70C 179.402,69.8008 180.902,68.9675 182,67.5C 182.333,67.8333 182.667,68.1667 183,68.5C 189.079,62.7092 196.246,58.8759 204.5,57C 205.571,56.1482 206.571,55.3149 207.5,54.5 Z"/></g>
<g><path style="opacity:1" fill="#e8e5d9" d="M 207.5,54.5 C 206.571,55.3149 205.571,56.1482 204.5,57C 196.246,58.8759 189.079,62.7092 183,68.5C 182.667,68.1667 182.333,67.8333 182,67.5C 180.902,68.9675 179.402,69.8008 177.5,70C 175.097,72.6824 172.597,75.1824 170,77.5C 168.341,81.6578 165.508,84.6578 161.5,86.5C 168.935,75.0639 178.601,66.0639 190.5,59.5C 196.114,57.6286 201.78,55.9619 207.5,54.5 Z"/></g>
<g><path style="opacity:1" fill="#a8d3cb" d="M 159.5,75.5 C 159.167,76.1667 158.833,76.8333 158.5,77.5C 158.167,78.5 157.5,79.1667 156.5,79.5C 154.5,80.1667 152.5,80.8333 150.5,81.5C 150.5,82.5 150.5,83.5 150.5,84.5C 148.692,84.4914 147.025,84.9914 145.5,86C 140.521,91.1282 136.187,96.6282 132.5,102.5C 137.652,90.8443 145.819,81.8443 157,75.5C 157.457,70.9197 155.624,67.4197 151.5,65C 149.681,64.2172 148.348,64.7172 147.5,66.5C 148.815,68.3159 150.315,69.9825 152,71.5C 152.667,72.5 152.667,73.5 152,74.5C 138.903,82.4396 130.069,93.773 125.5,108.5C 124.9,109.9 123.9,110.9 122.5,111.5C 122.708,109.08 122.374,106.747 121.5,104.5C 123.276,103.685 123.943,102.518 123.5,101C 124.624,100.751 125.624,100.251 126.5,99.5C 125.218,96.8674 123.884,96.8674 122.5,99.5C 121.34,95.5411 121.173,91.5411 122,87.5C 123,85.8333 124.333,84.5 126,83.5C 126.483,82.552 126.649,81.552 126.5,80.5C 127.5,80.5 128.5,80.5 129.5,80.5C 129.5,79.5 129.5,78.5 129.5,77.5C 130.552,77.6495 131.552,77.4828 132.5,77C 134.4,72.0409 138.066,69.5409 143.5,69.5C 143.192,71.924 143.526,74.2573 144.5,76.5C 146.173,74.9137 148.173,74.2471 150.5,74.5C 150.649,73.448 150.483,72.448 150,71.5C 147.062,69.2143 144.895,66.381 143.5,63C 144,62.5 144.5,62 145,61.5C 149.805,62.4507 154.639,63.4507 159.5,64.5C 159.154,65.6956 158.654,65.6956 158,64.5C 157.833,65.5 157.667,66.5 157.5,67.5C 158.175,70.1778 158.842,72.8445 159.5,75.5 Z"/></g>
<g><path style="opacity:1" fill="#e8a792" d="M 215.5,60.5 C 220.5,60.5 225.5,60.5 230.5,60.5C 230.714,62.1439 230.38,63.6439 229.5,65C 220.807,64.9238 212.474,66.5904 204.5,70C 198.658,73.6311 193.158,77.7978 188,82.5C 186.699,81.9019 185.865,80.9019 185.5,79.5C 187.984,76.5157 190.65,73.6824 193.5,71C 200.782,67.1904 208.116,63.6904 215.5,60.5 Z"/></g>
<g><path style="opacity:1" fill="#e9a48f" d="M 262.5,71.5 C 267.469,75.6373 271.969,80.3039 276,85.5C 277.202,87.6775 277.702,90.0108 277.5,92.5C 276.167,92.5 274.833,92.5 273.5,92.5C 273.649,91.448 273.483,90.448 273,89.5C 269.599,85.5556 266.099,81.7222 262.5,78C 255.78,73.6487 248.947,69.4821 242,65.5C 241.833,65.1667 241.667,64.8333 241.5,64.5C 243.421,63.359 245.421,63.1923 247.5,64C 252.832,65.9994 257.832,68.4994 262.5,71.5 Z"/></g>
<g><path style="opacity:1" fill="#1c3443" d="M 175.5,61.5 C 175.649,62.552 175.483,63.552 175,64.5C 170.476,67.6639 166.309,71.1639 162.5,75C 162.833,75.3333 163.167,75.6667 163.5,76C 161.975,77.0086 160.308,77.5086 158.5,77.5C 158.833,76.8333 159.167,76.1667 159.5,75.5C 164.537,70.4607 169.871,65.794 175.5,61.5 Z"/></g>
<g><path style="opacity:1" fill="#e9f2dd" d="M 129.5,80.5 C 132.952,78.8825 135.619,76.3825 137.5,73C 139.025,71.9914 140.692,71.4914 142.5,71.5C 140.835,76.8667 137.501,81.2 132.5,84.5C 130.5,87.5 128.5,90.5 126.5,93.5C 125.311,94.4287 123.978,94.762 122.5,94.5C 122.343,93.1266 122.51,91.7932 123,90.5C 124.996,87.0142 127.163,83.6809 129.5,80.5 Z"/></g>
<g><path style="opacity:1" fill="#1a3041" d="M 110.5,80.5 C 103.739,90.3499 97.7392,100.683 92.5,111.5C 92.5858,110.504 92.2524,109.671 91.5,109C 93.3008,108.683 93.6341,108.016 92.5,107C 95.9676,103.178 98.1342,98.6782 99,93.5C 99.3333,93.8333 99.6667,94.1667 100,94.5C 101.11,92.6031 101.276,90.7698 100.5,89C 104.114,85.4739 107.448,82.6406 110.5,80.5 Z"/></g>
<g><path style="opacity:1" fill="#eaf2e2" d="M 132.5,102.5 C 130.416,105.053 129.083,108.053 128.5,111.5C 126.121,112.567 125.121,111.567 125.5,108.5C 130.069,93.773 138.903,82.4396 152,74.5C 152.667,73.5 152.667,72.5 152,71.5C 150.315,69.9825 148.815,68.3159 147.5,66.5C 148.348,64.7172 149.681,64.2172 151.5,65C 155.624,67.4197 157.457,70.9197 157,75.5C 145.819,81.8443 137.652,90.8443 132.5,102.5 Z"/></g>
<g><path style="opacity:1" fill="#e4a891" d="M 178.5,86.5 C 180.948,86.0101 182.615,86.8434 183.5,89C 180.204,93.7607 177.038,98.594 174,103.5C 171.681,102.591 171.014,100.925 172,98.5C 173.989,94.3597 176.156,90.3597 178.5,86.5 Z"/></g>
<g><path style="opacity:1" fill="#ede9db" d="M 260.5,63.5 C 281.436,78.0088 293.769,98.0088 297.5,123.5C 296.732,122.737 296.232,121.737 296,120.5C 294.869,121.604 294.035,121.271 293.5,119.5C 295.04,115.694 293.707,113.694 289.5,113.5C 289.5,113.167 289.5,112.833 289.5,112.5C 290.117,112.389 290.617,112.056 291,111.5C 291.943,104.988 289.776,99.821 284.5,96C 285.554,94.6124 285.72,93.1124 285,91.5C 282.762,89.6909 281.595,87.3576 281.5,84.5C 279.799,84.0338 278.299,84.0338 277,84.5C 275.07,82.2417 273.57,79.7417 272.5,77C 269.026,75.344 265.692,73.5106 262.5,71.5C 261.404,69.233 259.737,67.3996 257.5,66C 251.545,62.7413 245.545,59.408 239.5,56C 229.374,55.0365 219.374,54.5365 209.5,54.5C 227.542,50.9058 244.542,53.9058 260.5,63.5 Z"/></g>
<g><path style="opacity:1" fill="#9dd1d0" d="M 156.5,79.5 C 149.196,90.7718 143.53,102.772 139.5,115.5C 135.833,114.167 132.167,112.833 128.5,111.5C 129.083,108.053 130.416,105.053 132.5,102.5C 136.187,96.6282 140.521,91.1282 145.5,86C 147.025,84.9914 148.692,84.4914 150.5,84.5C 150.5,83.5 150.5,82.5 150.5,81.5C 152.5,80.8333 154.5,80.1667 156.5,79.5 Z"/></g>
<g><path style="opacity:1" fill="#242231" d="M 95.5,76.5 C 95.2189,78.9628 94.2189,81.1295 92.5,83C 92.8333,83.3333 93.1667,83.6667 93.5,84C 88.9698,88.5998 86.1365,94.0998 85,100.5C 84.3333,101.833 83.3333,102.833 82,103.5C 78.3987,109.641 76.3987,116.308 76,123.5C 75.5017,125.544 74.335,126.878 72.5,127.5C 76.6787,108.818 84.3454,91.8179 95.5,76.5 Z"/></g>
<g><path style="opacity:1" fill="#e7a790" d="M 199.5,94.5 C 200.833,94.5 202.167,94.5 203.5,94.5C 203.657,95.8734 203.49,97.2068 203,98.5C 200.257,100.98 198.257,103.98 197,107.5C 194.713,113.741 192.713,120.074 191,126.5C 189.667,127.833 188.333,127.833 187,126.5C 186.333,124.5 186.333,122.5 187,120.5C 189.383,110.95 193.549,102.284 199.5,94.5 Z"/></g>
<g><path style="opacity:1" fill="#c6e1d5" d="M 125.5,108.5 C 125.121,111.567 126.121,112.567 128.5,111.5C 132.167,112.833 135.833,114.167 139.5,115.5C 139.672,116.492 139.338,117.158 138.5,117.5C 134.357,117.652 131.024,119.319 128.5,122.5C 127.252,121.96 126.085,121.293 125,120.5C 123.978,123.351 122.145,125.351 119.5,126.5C 118.833,126.167 118.167,125.833 117.5,125.5C 118.859,122.56 117.859,120.894 114.5,120.5C 112.407,120.486 110.574,121.152 109,122.5C 105.333,122.167 101.667,121.833 98,121.5C 96.4152,122.376 95.4152,123.709 95,125.5C 93.1727,125.194 92.006,123.694 91.5,121C 92.4231,118.959 92.7564,116.792 92.5,114.5C 92.5,114.167 92.5,113.833 92.5,113.5C 102.172,113.666 111.839,113.5 121.5,113C 122.056,112.617 122.389,112.117 122.5,111.5C 123.9,110.9 124.9,109.9 125.5,108.5 Z"/></g>
<g><path style="opacity:1" fill="#c7dfd7" d="M 320.5,113.5 C 326.5,113.5 332.5,113.5 338.5,113.5C 339.323,115.987 340.323,118.321 341.5,120.5C 350.769,152.775 349.103,184.442 336.5,215.5C 336.5,215.833 336.5,216.167 336.5,216.5C 327.475,236.005 314.475,252.505 297.5,266C 296.833,266.667 296.167,266.667 295.5,266C 294.672,264.008 293.339,262.508 291.5,261.5C 291.5,261.167 291.5,260.833 291.5,260.5C 289.746,258.325 288.579,255.992 288,253.5C 294.042,248.959 299.208,243.626 303.5,237.5C 304.914,235.946 306.581,234.612 308.5,233.5C 309.789,230.231 311.456,227.231 313.5,224.5C 315.263,220.635 317.263,216.968 319.5,213.5C 319.5,212.833 319.5,212.167 319.5,211.5C 321.023,208.27 322.356,204.936 323.5,201.5C 320.548,192.269 316.548,183.602 311.5,175.5C 310.962,173.883 310.629,172.216 310.5,170.5C 317.418,169.708 322.751,166.374 326.5,160.5C 318.408,158.136 311.741,153.802 306.5,147.5C 304.886,140.958 307.052,136.291 313,133.5C 317.775,136.604 322.275,140.104 326.5,144C 330.487,144.339 331.987,142.506 331,138.5C 325.711,134.88 320.711,130.88 316,126.5C 314.698,121.121 316.198,116.788 320.5,113.5 Z"/></g>
<g><path style="opacity:1" fill="#c3d9d6" d="M 92.5,114.5 C 92.7564,116.792 92.4231,118.959 91.5,121C 92.006,123.694 93.1727,125.194 95,125.5C 95.4152,123.709 96.4152,122.376 98,121.5C 101.667,121.833 105.333,122.167 109,122.5C 110.574,121.152 112.407,120.486 114.5,120.5C 117.859,120.894 118.859,122.56 117.5,125.5C 118.167,125.833 118.833,126.167 119.5,126.5C 122.145,125.351 123.978,123.351 125,120.5C 126.085,121.293 127.252,121.96 128.5,122.5C 131.024,119.319 134.357,117.652 138.5,117.5C 130.989,123.922 122.322,128.256 112.5,130.5C 112.703,128.956 113.37,127.622 114.5,126.5C 114.113,125.28 113.28,124.613 112,124.5C 106.872,125.259 101.705,125.759 96.5,126C 94.8619,126.242 93.3619,127.075 92,128.5C 91.3333,125.833 90.6667,125.833 90,128.5C 87.9348,130.874 88.1015,133.04 90.5,135C 89.1131,137.045 87.9464,139.212 87,141.5C 86.3486,143.235 86.5153,144.902 87.5,146.5C 86.1845,147.807 85.1845,149.307 84.5,151C 85.2439,153.851 85.2439,156.517 84.5,159C 85.3081,161.088 86.3081,163.088 87.5,165C 87.4651,168.116 87.1318,171.282 86.5,174.5C 86.8076,175.308 87.3076,175.975 88,176.5C 89.3561,175.62 90.8561,175.286 92.5,175.5C 90.5185,180.316 89.1852,185.482 88.5,191C 89.9328,198.15 91.5994,205.317 93.5,212.5C 86.3916,195.878 83.0582,178.378 83.5,160C 83.5135,144.101 86.5135,128.934 92.5,114.5 Z"/></g>
<g><path style="opacity:1" fill="#c7e0d5" d="M 112.5,130.5 C 111.475,130.897 111.308,131.563 112,132.5C 118.234,139.533 126.068,143.2 135.5,143.5C 135.085,150.74 133.585,157.74 131,164.5C 126.723,171.379 121.723,177.712 116,183.5C 109.738,202.514 115.571,216.847 133.5,226.5C 131.36,229.807 129.026,232.974 126.5,236C 127.636,237.145 128.636,238.312 129.5,239.5C 138.052,249.393 148.052,257.393 159.5,263.5C 163.352,266.595 167.685,268.928 172.5,270.5C 173.93,271.537 175.597,272.204 177.5,272.5C 177.089,275.276 177.922,275.943 180,274.5C 184.133,275.319 187.966,276.819 191.5,279C 196.343,280.605 201.177,280.771 206,279.5C 206.853,281.125 207.853,281.458 209,280.5C 214.222,281.349 219.222,282.682 224,284.5C 225.771,283.696 227.271,282.529 228.5,281C 230.811,281.155 233.144,281.155 235.5,281C 238.766,276.536 242.266,276.036 246,279.5C 248.92,276.538 252.253,275.204 256,275.5C 257.193,276.978 257.693,278.312 257.5,279.5C 258.852,274.814 261.852,271.814 266.5,270.5C 267.321,275.916 269.654,276.75 273.5,273C 272.449,271.615 271.116,270.615 269.5,270C 273.091,266.324 276.091,266.658 278.5,271C 279.448,271.483 280.448,271.649 281.5,271.5C 281.67,272.822 281.337,273.989 280.5,275C 278.253,276.655 275.92,276.988 273.5,276C 273.833,276.333 274.167,276.667 274.5,277C 272.167,278 270.5,279.667 269.5,282C 266.574,282.218 263.74,282.718 261,283.5C 260.667,283.167 260.333,282.833 260,282.5C 259.16,285.464 258.16,285.797 257,283.5C 255.92,287.112 253.753,288.112 250.5,286.5C 248.022,287.883 245.355,288.883 242.5,289.5C 241.062,289.281 239.729,288.781 238.5,288C 239.448,287.517 240.448,287.351 241.5,287.5C 241.657,286.127 241.49,284.793 241,283.5C 239.604,285.527 237.938,285.86 236,284.5C 232.911,285.051 230.078,286.217 227.5,288C 230.667,287.833 233.833,287.667 237,287.5C 237.645,288.646 238.478,289.646 239.5,290.5C 235.879,291.013 232.546,292.013 229.5,293.5C 229.167,293.5 228.833,293.5 228.5,293.5C 217.24,293.02 205.906,292.02 194.5,290.5C 193.604,291.506 192.938,291.506 192.5,290.5C 195.583,289.458 198.75,288.792 202,288.5C 209.147,289.536 216.313,289.703 223.5,289C 223.833,288.667 224.167,288.333 224.5,288C 221.794,287.399 219.794,285.899 218.5,283.5C 215.479,287.459 211.979,288.125 208,285.5C 207,286.167 206,286.833 205,287.5C 201.611,287.071 197.944,286.405 194,285.5C 193.167,285.833 192.333,286.167 191.5,286.5C 192.571,288.624 191.737,289.624 189,289.5C 187.105,289.385 185.438,288.718 184,287.5C 181.379,287.704 178.545,287.704 175.5,287.5C 175.646,285.058 174.813,284.391 173,285.5C 170.135,283.733 167.468,282.399 165,281.5C 163.374,281.854 161.541,281.854 159.5,281.5C 153.385,279.277 147.719,276.277 142.5,272.5C 130.586,264.255 119.919,254.588 110.5,243.5C 104.985,235.8 99.9854,227.8 95.5,219.5C 95.5,219.167 95.5,218.833 95.5,218.5C 94.8333,216.5 94.1667,214.5 93.5,212.5C 91.5994,205.317 89.9328,198.15 88.5,191C 89.1852,185.482 90.5185,180.316 92.5,175.5C 90.8561,175.286 89.3561,175.62 88,176.5C 87.3076,175.975 86.8076,175.308 86.5,174.5C 87.1318,171.282 87.4651,168.116 87.5,165C 86.3081,163.088 85.3081,161.088 84.5,159C 85.2439,156.517 85.2439,153.851 84.5,151C 85.1845,149.307 86.1845,147.807 87.5,146.5C 86.5153,144.902 86.3486,143.235 87,141.5C 87.9464,139.212 89.1131,137.045 90.5,135C 88.1015,133.04 87.9348,130.874 90,128.5C 90.6667,125.833 91.3333,125.833 92,128.5C 93.3619,127.075 94.8619,126.242 96.5,126C 101.705,125.759 106.872,125.259 112,124.5C 113.28,124.613 114.113,125.28 114.5,126.5C 113.37,127.622 112.703,128.956 112.5,130.5 Z"/></g>
<g><path style="opacity:1" fill="#eba38b" d="M 191.5,165.5 C 190.5,165.5 189.5,165.5 188.5,165.5C 188.121,160.703 188.621,156.036 190,151.5C 191.366,157.629 193.866,157.963 197.5,152.5C 210.976,140.459 219.809,125.459 224,107.5C 225,108.167 226,108.833 227,109.5C 234.355,125.797 235.355,142.464 230,159.5C 228.211,161.229 226.044,161.896 223.5,161.5C 226.988,150.128 228.322,138.461 227.5,126.5C 226.178,126.33 225.011,126.663 224,127.5C 217.984,141.847 208.15,152.681 194.5,160C 193.391,161.876 192.391,163.709 191.5,165.5 Z"/></g>
<g><path style="opacity:1" fill="#21273e" d="M 244.5,49.5 C 255.795,52.6248 265.795,58.1248 274.5,66C 276.179,66.3947 277.845,66.228 279.5,65.5C 283.043,66.7136 286.043,68.7136 288.5,71.5C 291.338,69.8985 294.338,69.3985 297.5,70C 307.917,82.9977 315.583,97.4977 320.5,113.5C 316.198,116.788 314.698,121.121 316,126.5C 320.711,130.88 325.711,134.88 331,138.5C 331.987,142.506 330.487,144.339 326.5,144C 322.275,140.104 317.775,136.604 313,133.5C 307.052,136.291 304.886,140.958 306.5,147.5C 306.357,149.262 306.691,150.929 307.5,152.5C 310.456,154.453 313.123,156.786 315.5,159.5C 314.675,160.386 313.675,160.719 312.5,160.5C 306.905,158.073 302.738,154.073 300,148.5C 299.545,140.075 298.712,131.742 297.5,123.5C 293.769,98.0088 281.436,78.0088 260.5,63.5C 258.544,61.0754 256.378,58.7421 254,56.5C 253.586,56.9574 253.086,57.2907 252.5,57.5C 245.657,54.1616 238.491,51.8283 231,50.5C 229.207,51.3808 228.54,50.7142 229,48.5C 230.147,49.4581 231.147,49.1247 232,47.5C 233.667,48.1667 235.333,48.8333 237,49.5C 239.288,49.2625 241.788,49.2625 244.5,49.5 Z"/></g>
<g><path style="opacity:1" fill="#c1928c" d="M 306.5,115.5 C 307.75,115.577 308.583,116.244 309,117.5C 309.667,120.5 309.667,123.5 309,126.5C 308.311,127.357 307.478,128.023 306.5,128.5C 305.602,125.384 304.936,122.218 304.5,119C 304.862,117.566 305.528,116.399 306.5,115.5 Z"/></g>
<g><path style="opacity:1" fill="#d89c93" d="M 299.5,84.5 C 303.09,90.68 306.424,97.0133 309.5,103.5C 308.672,104.415 307.672,105.081 306.5,105.5C 305.479,104.099 304.479,102.765 303.5,101.5C 299.95,93.4015 295.617,85.7348 290.5,78.5C 291.723,77.3861 293.056,77.2195 294.5,78C 296.539,79.9263 298.206,82.093 299.5,84.5 Z"/></g>
<g><path style="opacity:1" fill="#372635" d="M 299.5,84.5 C 300.5,84.5 301.5,84.5 302.5,84.5C 305.825,90.1656 308.492,96.1656 310.5,102.5C 310.29,106.727 308.29,108.06 304.5,106.5C 303.691,104.929 303.357,103.262 303.5,101.5C 304.479,102.765 305.479,104.099 306.5,105.5C 307.672,105.081 308.672,104.415 309.5,103.5C 306.424,97.0133 303.09,90.68 299.5,84.5 Z"/></g>
<g><path style="opacity:1" fill="#232a3e" d="M 190.5,59.5 C 178.601,66.0639 168.935,75.0639 161.5,86.5C 154.151,96.3339 148.984,107.334 146,119.5C 139.933,125.788 132.767,130.455 124.5,133.5C 130.353,136.857 136.687,138.191 143.5,137.5C 143.371,151.361 139.538,164.028 132,175.5C 118.63,186.279 116.964,198.612 127,212.5C 127.906,206.688 130.406,201.688 134.5,197.5C 135.317,201.565 136.317,205.565 137.5,209.5C 136.5,211.5 135.5,213.5 134.5,215.5C 134.336,218.187 134.503,220.854 135,223.5C 135.791,222.255 136.291,220.922 136.5,219.5C 138.592,219.26 140.592,220.094 142.5,222C 141.62,223.356 141.286,224.856 141.5,226.5C 139.399,229.179 137.399,232.012 135.5,235C 138.181,234.509 140.847,233.676 143.5,232.5C 143.586,233.496 143.252,234.329 142.5,235C 140.217,236.871 137.717,238.371 135,239.5C 134.383,238.551 134.549,237.718 135.5,237C 134.075,235.638 133.242,234.138 133,232.5C 130.762,234.309 129.595,236.642 129.5,239.5C 128.636,238.312 127.636,237.145 126.5,236C 129.026,232.974 131.36,229.807 133.5,226.5C 115.571,216.847 109.738,202.514 116,183.5C 121.723,177.712 126.723,171.379 131,164.5C 133.585,157.74 135.085,150.74 135.5,143.5C 126.068,143.2 118.234,139.533 112,132.5C 111.308,131.563 111.475,130.897 112.5,130.5C 122.322,128.256 130.989,123.922 138.5,117.5C 139.338,117.158 139.672,116.492 139.5,115.5C 143.53,102.772 149.196,90.7718 156.5,79.5C 157.5,79.1667 158.167,78.5 158.5,77.5C 160.308,77.5086 161.975,77.0086 163.5,76C 163.167,75.6667 162.833,75.3333 162.5,75C 166.309,71.1639 170.476,67.6639 175,64.5C 175.483,63.552 175.649,62.552 175.5,61.5C 177.822,59.336 180.489,57.6693 183.5,56.5C 184.15,56.8039 184.817,57.1373 185.5,57.5C 189.444,53.7218 193.611,52.0551 198,52.5C 205.349,49.0634 213.182,47.5634 221.5,48C 224.659,45.618 226.659,46.4514 227.5,50.5C 220.907,50.7287 214.24,51.7287 207.5,53.5C 204.589,52.0165 201.922,52.3498 199.5,54.5C 198.914,54.2907 198.414,53.9574 198,53.5C 196.447,55.6937 194.281,56.8604 191.5,57C 190.748,57.6708 190.414,58.5041 190.5,59.5 Z"/></g>
<g><path style="opacity:1" fill="#eaa48d" d="M 272.5,138.5 C 275.226,145.185 276.56,152.185 276.5,159.5C 275.07,159.579 273.736,159.246 272.5,158.5C 271.774,153.656 270.441,148.99 268.5,144.5C 265.683,149.962 262.017,154.795 257.5,159C 256.207,159.49 254.873,159.657 253.5,159.5C 253.539,158.244 253.039,157.244 252,156.5C 246.535,162.601 239.702,165.935 231.5,166.5C 231.5,164.833 231.5,163.167 231.5,161.5C 236.9,160.472 241.9,158.305 246.5,155C 248.82,151.515 251.487,148.349 254.5,145.5C 256.422,147.003 257.588,149.003 258,151.5C 259.166,148.497 260.833,145.83 263,143.5C 263.547,140.298 264.547,137.298 266,134.5C 268.978,117.324 265.644,101.657 256,87.5C 255.316,86.2161 255.483,85.0495 256.5,84C 259.406,84.8518 261.906,86.6851 264,89.5C 265.09,93.7774 266.757,97.7774 269,101.5C 271.605,112.062 272.105,122.729 270.5,133.5C 270.724,135.455 271.391,137.121 272.5,138.5 Z"/></g>
<g><path style="opacity:1" fill="#e6a88e" d="M 197.5,152.5 C 193.866,157.963 191.366,157.629 190,151.5C 188.621,156.036 188.121,160.703 188.5,165.5C 189.5,165.5 190.5,165.5 191.5,165.5C 191.833,166.167 192.167,166.833 192.5,167.5C 190.708,167.366 189.042,167.699 187.5,168.5C 186.553,159.22 186.22,149.886 186.5,140.5C 188.144,140.286 189.644,140.62 191,141.5C 191.499,145.821 191.666,150.154 191.5,154.5C 193.685,154.296 195.685,153.63 197.5,152.5 Z"/></g>
<g><path style="opacity:1" fill="#1e1826" d="M 355.5,118.5 C 361.457,135.542 363.79,153.208 362.5,171.5C 361.903,153.733 359.57,136.066 355.5,118.5 Z"/></g>
<g><path style="opacity:1" fill="#e8a78f" d="M 289.5,112.5 C 289.5,112.833 289.5,113.167 289.5,113.5C 292.485,127.34 291.985,141.007 288,154.5C 287.359,156.813 286.026,158.48 284,159.5C 282.5,159.333 281.667,158.5 281.5,157C 283.144,152.571 284.477,148.071 285.5,143.5C 287.65,129.469 286.316,115.802 281.5,102.5C 283.144,102.286 284.644,102.62 286,103.5C 287.627,106.357 288.793,109.357 289.5,112.5 Z"/></g>
<g><path style="opacity:1" fill="#f6f1dc" d="M 101.5,152.5 C 108.202,152.336 114.869,152.669 121.5,153.5C 121.896,156.044 121.229,158.211 119.5,160C 112.766,162.117 106.099,161.951 99.5,159.5C 97.9112,156.412 98.5779,154.078 101.5,152.5 Z"/></g>
<g><path style="opacity:1" fill="#e7a48e" d="M 162.5,188.5 C 162.5,188.833 162.5,189.167 162.5,189.5C 160.33,188.232 158.163,188.232 156,189.5C 155.348,193.756 155.848,197.756 157.5,201.5C 158.367,206.635 159.7,211.635 161.5,216.5C 160.504,216.586 159.671,216.252 159,215.5C 158.086,213.711 157.253,211.877 156.5,210C 155.361,202.133 154.361,194.299 153.5,186.5C 154.833,186.5 156.167,186.5 157.5,186.5C 157.829,180.463 157.496,174.463 156.5,168.5C 154.145,169.522 152.478,171.188 151.5,173.5C 150.167,173.5 148.833,173.5 147.5,173.5C 149.334,168.822 152.5,165.156 157,162.5C 158.205,160.466 158.372,158.466 157.5,156.5C 152.056,159.671 147.222,163.671 143,168.5C 142.48,170.289 142.813,171.956 144,173.5C 146.001,176.331 148.167,178.997 150.5,181.5C 150.833,182.167 151.167,182.833 151.5,183.5C 150.503,183.47 149.836,183.97 149.5,185C 149.989,186.138 150.322,187.305 150.5,188.5C 144.719,183.628 140.386,177.628 137.5,170.5C 141.95,160.883 149.116,154.216 159,150.5C 159.76,146.181 160.427,141.848 161,137.5C 161.687,134.574 163.52,133.241 166.5,133.5C 165.302,143.107 164.136,152.773 163,162.5C 162.5,171.16 162.334,179.827 162.5,188.5 Z"/></g>
<g><path style="opacity:1" fill="#23313e" d="M 92.5,111.5 C 92.5,112.167 92.5,112.833 92.5,113.5C 92.5,113.833 92.5,114.167 92.5,114.5C 86.5135,128.934 83.5135,144.101 83.5,160C 83.0582,178.378 86.3916,195.878 93.5,212.5C 94.1667,214.5 94.8333,216.5 95.5,218.5C 93.0576,218.646 92.3909,217.813 93.5,216C 91.6992,215.683 91.3659,215.016 92.5,214C 87.4794,207.121 84.9794,199.288 85,190.5C 84.7104,188.956 84.0437,187.623 83,186.5C 81.0948,169.831 81.0948,153.164 83,136.5C 83.5,135.5 84,134.5 84.5,133.5C 83.8005,131.388 84.3005,129.388 86,127.5C 85.7225,121.07 87.8891,115.736 92.5,111.5 Z"/></g>
<g><path style="opacity:1" fill="#252c3d" d="M 306.5,147.5 C 311.741,153.802 318.408,158.136 326.5,160.5C 322.751,166.374 317.418,169.708 310.5,170.5C 310.629,172.216 310.962,173.883 311.5,175.5C 308.58,174.596 308.08,172.596 310,169.5C 313.124,168.259 316.291,167.092 319.5,166C 318.391,165.362 317.225,164.862 316,164.5C 312.617,165.814 309.117,166.647 305.5,167C 304.484,167.519 303.818,168.353 303.5,169.5C 305.204,174.541 306.537,179.708 307.5,185C 305.808,186.401 305.141,188.234 305.5,190.5C 301.775,190.78 300.608,192.78 302,196.5C 303.487,197.155 304.653,198.155 305.5,199.5C 304.528,201.305 303.361,202.972 302,204.5C 301.313,206.568 301.48,208.568 302.5,210.5C 300.539,211.578 298.872,212.911 297.5,214.5C 300.327,204.397 299.994,194.397 296.5,184.5C 296.81,182.856 297.81,181.856 299.5,181.5C 300.458,181.953 301.292,182.619 302,183.5C 302.36,185.608 303.027,187.608 304,189.5C 305.141,183.149 304.308,177.149 301.5,171.5C 299.955,170.548 298.288,170.215 296.5,170.5C 294.49,168.683 294.157,166.683 295.5,164.5C 300.511,164.666 305.511,164.499 310.5,164C 314.33,163.724 314.996,162.558 312.5,160.5C 313.675,160.719 314.675,160.386 315.5,159.5C 313.123,156.786 310.456,154.453 307.5,152.5C 306.691,150.929 306.357,149.262 306.5,147.5 Z"/></g>
<g><path style="opacity:1" fill="#f4ecd7" d="M 289.5,113.5 C 293.707,113.694 295.04,115.694 293.5,119.5C 294.035,121.271 294.869,121.604 296,120.5C 296.232,121.737 296.732,122.737 297.5,123.5C 298.712,131.742 299.545,140.075 300,148.5C 302.738,154.073 306.905,158.073 312.5,160.5C 314.996,162.558 314.33,163.724 310.5,164C 305.511,164.499 300.511,164.666 295.5,164.5C 293.162,162.96 290.495,162.294 287.5,162.5C 287.34,164.199 287.506,165.866 288,167.5C 291.136,173.116 293.97,178.782 296.5,184.5C 299.994,194.397 300.327,204.397 297.5,214.5C 296.662,214.842 296.328,215.508 296.5,216.5C 295.017,218.094 293.517,219.76 292,221.5C 291.397,216.824 289.564,212.824 286.5,209.5C 286.616,202.126 286.116,194.792 285,187.5C 283.054,181.829 281.22,176.162 279.5,170.5C 280.263,167.859 280.43,165.192 280,162.5C 278.612,161.446 277.112,161.28 275.5,162C 272.984,167.226 271.318,172.726 270.5,178.5C 269.07,178.421 267.736,178.754 266.5,179.5C 265.156,181.529 263.823,183.529 262.5,185.5C 260.429,187.1 258.095,187.6 255.5,187C 251.681,181.806 250.514,175.972 252,169.5C 252.075,167.065 252.908,166.398 254.5,167.5C 254.586,166.504 254.252,165.671 253.5,165C 256.108,163.063 256.108,161.23 253.5,159.5C 254.873,159.657 256.207,159.49 257.5,159C 262.017,154.795 265.683,149.962 268.5,144.5C 270.441,148.99 271.774,153.656 272.5,158.5C 273.736,159.246 275.07,159.579 276.5,159.5C 276.56,152.185 275.226,145.185 272.5,138.5C 273.117,138.389 273.617,138.056 274,137.5C 275.125,140.89 276.625,144.057 278.5,147C 276.968,149.33 277.302,151.33 279.5,153C 278.774,156.031 279.441,155.864 281.5,152.5C 278.381,151.306 278.048,149.806 280.5,148C 279.333,145.167 280.167,144.333 283,145.5C 283.708,144.619 284.542,143.953 285.5,143.5C 284.477,148.071 283.144,152.571 281.5,157C 281.667,158.5 282.5,159.333 284,159.5C 286.026,158.48 287.359,156.813 288,154.5C 291.985,141.007 292.485,127.34 289.5,113.5 Z"/></g>
<g><path style="opacity:1" fill="#212941" d="M 263.5,179.5 C 261.656,180.16 259.99,181.16 258.5,182.5C 257.353,182.182 256.519,181.516 256,180.5C 256.011,173.746 256.844,167.079 258.5,160.5C 262.283,156.152 265.117,156.818 267,162.5C 268.175,168.759 267.008,174.426 263.5,179.5 Z"/></g>
<g><path style="opacity:1" fill="#f9eacf" d="M 151.5,173.5 C 153.1,172.748 154.6,171.748 156,170.5C 156.667,175.5 156.667,180.5 156,185.5C 154.549,183.536 152.716,182.203 150.5,181.5C 148.167,178.997 146.001,176.331 144,173.5C 142.813,171.956 142.48,170.289 143,168.5C 147.222,163.671 152.056,159.671 157.5,156.5C 158.372,158.466 158.205,160.466 157,162.5C 152.5,165.156 149.334,168.822 147.5,173.5C 148.833,173.5 150.167,173.5 151.5,173.5 Z"/></g>
<g><path style="opacity:1" fill="#f7d1b5" d="M 153.5,186.5 C 153.573,184.973 152.906,183.973 151.5,183.5C 151.167,182.833 150.833,182.167 150.5,181.5C 152.716,182.203 154.549,183.536 156,185.5C 156.667,180.5 156.667,175.5 156,170.5C 154.6,171.748 153.1,172.748 151.5,173.5C 152.478,171.188 154.145,169.522 156.5,168.5C 157.496,174.463 157.829,180.463 157.5,186.5C 156.167,186.5 154.833,186.5 153.5,186.5 Z"/></g>
<g><path style="opacity:1" fill="#30353e" d="M 258.5,160.5 C 256.844,167.079 256.011,173.746 256,180.5C 256.519,181.516 257.353,182.182 258.5,182.5C 259.99,181.16 261.656,180.16 263.5,179.5C 262.373,183.966 259.707,185.3 255.5,183.5C 253.184,178.301 252.851,172.968 254.5,167.5C 255.567,165.036 256.9,162.703 258.5,160.5 Z"/></g>
<g><path style="opacity:1" fill="#e6a594" d="M 295.5,164.5 C 294.157,166.683 294.49,168.683 296.5,170.5C 296.062,170.435 295.728,170.601 295.5,171C 298.373,173.913 299.706,177.413 299.5,181.5C 297.81,181.856 296.81,182.856 296.5,184.5C 293.97,178.782 291.136,173.116 288,167.5C 287.506,165.866 287.34,164.199 287.5,162.5C 290.495,162.294 293.162,162.96 295.5,164.5 Z"/></g>
<g><path style="opacity:1" fill="#e7e3d6" d="M 296.5,170.5 C 298.288,170.215 299.955,170.548 301.5,171.5C 304.308,177.149 305.141,183.149 304,189.5C 303.027,187.608 302.36,185.608 302,183.5C 301.292,182.619 300.458,181.953 299.5,181.5C 299.706,177.413 298.373,173.913 295.5,171C 295.728,170.601 296.062,170.435 296.5,170.5 Z"/></g>
<g><path style="opacity:1" fill="#1f2c3b" d="M 341.5,120.5 C 342.497,120.47 343.164,120.97 343.5,122C 344.333,125.498 345.166,128.998 346,132.5C 347.758,133.469 348.258,134.636 347.5,136C 348.49,139.759 349.323,143.593 350,147.5C 350.763,144.937 351.263,144.937 351.5,147.5C 349.939,151.526 348.939,155.693 348.5,160C 349.589,169.205 349.589,178.205 348.5,187C 347.313,188.019 346.313,189.186 345.5,190.5C 345.402,192.98 345.402,195.48 345.5,198C 344.711,199.626 343.711,201.126 342.5,202.5C 343.485,204.098 343.651,205.765 343,207.5C 341.744,209.754 340.577,212.088 339.5,214.5C 338.675,215.386 337.675,215.719 336.5,215.5C 349.103,184.442 350.769,152.775 341.5,120.5 Z"/></g>
<g><path style="opacity:1" fill="#252a3b" d="M 209.5,157.5 C 211.467,157.261 213.301,157.594 215,158.5C 218.164,165.764 218.164,173.098 215,180.5C 212.513,186.126 209.18,186.792 205,182.5C 202.459,173.375 203.959,165.042 209.5,157.5 Z"/></g>
<g><path style="opacity:1" fill="#1c243e" d="M 208.5,160.5 C 209.721,161.028 210.887,161.695 212,162.5C 213.016,161.366 213.683,161.699 214,163.5C 214.333,163.167 214.667,162.833 215,162.5C 216.77,170.439 214.77,177.106 209,182.5C 205.319,178.979 204.819,175.146 207.5,171C 206.833,169.667 206.167,168.333 205.5,167C 207.022,165.084 208.022,162.917 208.5,160.5 Z"/></g>
<g><path style="opacity:1" fill="#21273e" d="M 311.5,175.5 C 316.548,183.602 320.548,192.269 323.5,201.5C 322.356,204.936 321.023,208.27 319.5,211.5C 317.503,206.511 315.503,201.511 313.5,196.5C 313.372,194.91 312.705,193.577 311.5,192.5C 310.523,194.411 309.857,196.411 309.5,198.5C 306.774,202.297 304.774,206.63 303.5,211.5C 302.975,212.192 302.308,212.692 301.5,213C 302.834,215.854 302.001,218.021 299,219.5C 297.251,219.252 296.418,218.252 296.5,216.5C 296.328,215.508 296.662,214.842 297.5,214.5C 298.872,212.911 300.539,211.578 302.5,210.5C 301.48,208.568 301.313,206.568 302,204.5C 303.361,202.972 304.528,201.305 305.5,199.5C 304.653,198.155 303.487,197.155 302,196.5C 300.608,192.78 301.775,190.78 305.5,190.5C 305.141,188.234 305.808,186.401 307.5,185C 306.537,179.708 305.204,174.541 303.5,169.5C 303.818,168.353 304.484,167.519 305.5,167C 309.117,166.647 312.617,165.814 316,164.5C 317.225,164.862 318.391,165.362 319.5,166C 316.291,167.092 313.124,168.259 310,169.5C 308.08,172.596 308.58,174.596 311.5,175.5 Z"/></g>
<g><path style="opacity:1" fill="#edc7b3" d="M 195.5,178.5 C 197.312,178.771 198.978,179.438 200.5,180.5C 204.451,185.35 204.451,190.016 200.5,194.5C 198.456,189.364 196.789,184.03 195.5,178.5 Z"/></g>
<g><path style="opacity:1" fill="#1e1e2e" d="M 362.5,173.5 C 361.234,191.869 356.567,209.203 348.5,225.5C 348.362,221.077 349.695,217.244 352.5,214C 352.167,213.667 351.833,213.333 351.5,213C 355.165,208.905 356.165,204.572 354.5,200C 356.563,198.428 357.229,196.595 356.5,194.5C 357.351,187.066 359.351,180.066 362.5,173.5 Z"/></g>
<g><path style="opacity:1" fill="#e6c4b6" d="M 270.5,178.5 C 270.903,185.039 268.236,189.706 262.5,192.5C 261.167,190.167 261.167,187.833 262.5,185.5C 263.823,183.529 265.156,181.529 266.5,179.5C 267.736,178.754 269.07,178.421 270.5,178.5 Z"/></g>
<g><path style="opacity:1" fill="#3a2e39" d="M 162.5,189.5 C 163.058,194.516 163.725,199.516 164.5,204.5C 163.25,204.423 162.417,203.756 162,202.5C 161.501,198.514 161.334,194.514 161.5,190.5C 160.5,190.5 159.5,190.5 158.5,190.5C 157.886,194.135 157.552,197.802 157.5,201.5C 155.848,197.756 155.348,193.756 156,189.5C 158.163,188.232 160.33,188.232 162.5,189.5 Z"/></g>
<g><path style="opacity:1" fill="#2a2938" d="M 279.5,170.5 C 278.202,176.764 276.702,183.097 275,189.5C 274.654,195.857 274.154,202.19 273.5,208.5C 272.833,209.5 272.167,210.5 271.5,211.5C 272.505,203.382 272.672,195.382 272,187.5C 267.927,191.192 263.76,194.692 259.5,198C 252.148,198.364 244.815,198.864 237.5,199.5C 238.842,198.207 240.509,197.374 242.5,197C 249.924,198.643 256.591,197.143 262.5,192.5C 268.236,189.706 270.903,185.039 270.5,178.5C 271.318,172.726 272.984,167.226 275.5,162C 277.112,161.28 278.612,161.446 280,162.5C 280.43,165.192 280.263,167.859 279.5,170.5 Z"/></g>
<g><path style="opacity:1" fill="#ac8a8a" d="M 313.5,196.5 C 312.761,196.369 312.094,196.536 311.5,197C 310.915,198.302 310.249,199.469 309.5,200.5C 309.5,199.833 309.5,199.167 309.5,198.5C 309.857,196.411 310.523,194.411 311.5,192.5C 312.705,193.577 313.372,194.91 313.5,196.5 Z"/></g>
<g><path style="opacity:1" fill="#2d2b36" d="M 192.5,167.5 C 193.117,167.611 193.617,167.944 194,168.5C 194.455,171.854 194.955,175.187 195.5,178.5C 196.789,184.03 198.456,189.364 200.5,194.5C 205.744,197.232 211.411,198.899 217.5,199.5C 217.5,202.833 217.5,206.167 217.5,209.5C 215.716,209.893 214.05,210.559 212.5,211.5C 212.5,210.167 212.5,208.833 212.5,207.5C 211.5,207.5 210.5,207.5 209.5,207.5C 209.5,206.5 209.5,205.5 209.5,204.5C 211.737,205.449 214.071,206.116 216.5,206.5C 216.5,204.5 216.5,202.5 216.5,200.5C 210.772,200.433 205.272,199.433 200,197.5C 195.873,188.997 193.54,179.663 193,169.5C 191.989,168.663 190.822,168.33 189.5,168.5C 189.675,170.621 189.341,172.621 188.5,174.5C 187.539,172.735 187.205,170.735 187.5,168.5C 189.042,167.699 190.708,167.366 192.5,167.5 Z"/></g>
<g><path style="opacity:1" fill="#f09f89" d="M 281.5,222.5 C 274.214,220.534 271.547,215.867 273.5,208.5C 274.151,207.909 274.818,207.243 275.5,206.5C 276.33,200.862 276.83,195.196 277,189.5C 278.232,186.7 278.899,183.7 279,180.5C 279.414,180.043 279.914,179.709 280.5,179.5C 282.675,188.042 284.342,196.709 285.5,205.5C 284.934,211.428 283.6,217.094 281.5,222.5 Z"/></g>
<g><path style="opacity:1" fill="#dea596" d="M 279.5,170.5 C 281.22,176.162 283.054,181.829 285,187.5C 286.116,194.792 286.616,202.126 286.5,209.5C 286.66,211.199 286.494,212.866 286,214.5C 285.14,217.633 283.64,220.3 281.5,222.5C 283.6,217.094 284.934,211.428 285.5,205.5C 284.342,196.709 282.675,188.042 280.5,179.5C 279.914,179.709 279.414,180.043 279,180.5C 278.899,183.7 278.232,186.7 277,189.5C 276.83,195.196 276.33,200.862 275.5,206.5C 274.818,207.243 274.151,207.909 273.5,208.5C 274.154,202.19 274.654,195.857 275,189.5C 276.702,183.097 278.202,176.764 279.5,170.5 Z"/></g>
<g><path style="opacity:1" fill="#e69e8f" d="M 313.5,196.5 C 315.503,201.511 317.503,206.511 319.5,211.5C 319.5,212.167 319.5,212.833 319.5,213.5C 318.777,215.213 317.443,216.213 315.5,216.5C 312.15,215.157 308.817,213.823 305.5,212.5C 305.96,208.189 307.293,204.189 309.5,200.5C 310.249,199.469 310.915,198.302 311.5,197C 312.094,196.536 312.761,196.369 313.5,196.5 Z"/></g>
<g><path style="opacity:1" fill="#ef9f89" d="M 151.5,183.5 C 152.906,183.973 153.573,184.973 153.5,186.5C 154.361,194.299 155.361,202.133 156.5,210C 157.253,211.877 158.086,213.711 159,215.5C 159.671,216.252 160.504,216.586 161.5,216.5C 164.055,219.25 166.388,222.25 168.5,225.5C 165.426,230.056 163.759,235.056 163.5,240.5C 162.041,240.567 160.708,240.234 159.5,239.5C 154.97,236.116 151.637,231.783 149.5,226.5C 149.265,225.903 148.765,225.57 148,225.5C 146.337,227.328 144.504,228.995 142.5,230.5C 141.571,229.311 141.238,227.978 141.5,226.5C 143.067,225.319 143.901,223.653 144,221.5C 145.825,220.897 147.659,220.23 149.5,219.5C 149.931,218.707 150.265,217.873 150.5,217C 149.552,209.878 149.219,202.712 149.5,195.5C 150.994,193.127 151.327,190.794 150.5,188.5C 150.322,187.305 149.989,186.138 149.5,185C 149.836,183.97 150.503,183.47 151.5,183.5 Z"/></g>
<g><path style="opacity:1" fill="#e7e5db" d="M 162.5,188.5 C 164.814,189.179 165.147,190.512 163.5,192.5C 164.856,197.111 166.023,201.777 167,206.5C 168.758,207.469 169.258,208.636 168.5,210C 169.966,211.552 170.966,213.386 171.5,215.5C 171.957,216.298 172.624,216.631 173.5,216.5C 175.003,221.431 174.169,221.764 171,217.5C 168.26,213.353 166.093,209.02 164.5,204.5C 163.725,199.516 163.058,194.516 162.5,189.5C 162.5,189.167 162.5,188.833 162.5,188.5 Z"/></g>
<g><path style="opacity:1" fill="#cc9993" d="M 273.5,208.5 C 271.547,215.867 274.214,220.534 281.5,222.5C 281.585,223.995 280.919,224.995 279.5,225.5C 276.041,222.585 273.041,219.252 270.5,215.5C 271.246,214.264 271.579,212.93 271.5,211.5C 272.167,210.5 272.833,209.5 273.5,208.5 Z"/></g>
<g><path style="opacity:1" fill="#e4a894" d="M 149.5,195.5 C 149.219,202.712 149.552,209.878 150.5,217C 150.265,217.873 149.931,218.707 149.5,219.5C 147.659,220.23 145.825,220.897 144,221.5C 143.901,223.653 143.067,225.319 141.5,226.5C 141.286,224.856 141.62,223.356 142.5,222C 140.592,220.094 138.592,219.26 136.5,219.5C 136.771,217.62 136.104,216.287 134.5,215.5C 135.5,213.5 136.5,211.5 137.5,209.5C 140.452,213.119 143.785,216.452 147.5,219.5C 146.938,211.355 147.605,203.355 149.5,195.5 Z"/></g>
<g><path style="opacity:1" fill="#f4ead5" d="M 305.5,212.5 C 308.817,213.823 312.15,215.157 315.5,216.5C 317.443,216.213 318.777,215.213 319.5,213.5C 317.263,216.968 315.263,220.635 313.5,224.5C 313.67,223.178 313.337,222.011 312.5,221C 309.367,220.14 306.7,218.64 304.5,216.5C 304.433,215.041 304.766,213.708 305.5,212.5 Z"/></g>
<g><path style="opacity:1" fill="#d2d4d8" d="M 134.5,215.5 C 136.104,216.287 136.771,217.62 136.5,219.5C 136.291,220.922 135.791,222.255 135,223.5C 134.503,220.854 134.336,218.187 134.5,215.5 Z"/></g>
<g><path style="opacity:1" fill="#2a2739" d="M 309.5,198.5 C 309.5,199.167 309.5,199.833 309.5,200.5C 307.293,204.189 305.96,208.189 305.5,212.5C 304.766,213.708 304.433,215.041 304.5,216.5C 303.11,217.899 302.11,219.566 301.5,221.5C 298.478,224.853 295.478,228.187 292.5,231.5C 291.903,231.265 291.57,230.765 291.5,230C 292.319,228.681 293.319,227.515 294.5,226.5C 295.631,224.926 295.798,223.259 295,221.5C 288.578,224.659 281.912,227.326 275,229.5C 272.795,228.588 270.962,227.255 269.5,225.5C 271.635,225.853 272.968,225.02 273.5,223C 271.251,220.495 269.251,217.828 267.5,215C 269.027,213.968 270.36,212.801 271.5,211.5C 271.579,212.93 271.246,214.264 270.5,215.5C 273.041,219.252 276.041,222.585 279.5,225.5C 280.919,224.995 281.585,223.995 281.5,222.5C 283.64,220.3 285.14,217.633 286,214.5C 286.494,212.866 286.66,211.199 286.5,209.5C 289.564,212.824 291.397,216.824 292,221.5C 293.517,219.76 295.017,218.094 296.5,216.5C 296.418,218.252 297.251,219.252 299,219.5C 302.001,218.021 302.834,215.854 301.5,213C 302.308,212.692 302.975,212.192 303.5,211.5C 304.774,206.63 306.774,202.297 309.5,198.5 Z"/></g>
<g><path style="opacity:1" fill="#222a3e" d="M 292.5,231.5 C 296.704,232.746 300.37,234.746 303.5,237.5C 299.208,243.626 294.042,248.959 288,253.5C 288.579,255.992 289.746,258.325 291.5,260.5C 290.022,260.238 288.689,260.571 287.5,261.5C 287.277,262.967 286.944,264.467 286.5,266C 287.308,266.308 287.975,266.808 288.5,267.5C 287.349,268.731 286.183,268.731 285,267.5C 284.658,269.818 285.158,271.985 286.5,274C 285.289,274.893 285.289,275.726 286.5,276.5C 287.623,274.711 288.956,274.378 290.5,275.5C 290.291,276.086 289.957,276.586 289.5,277C 285.697,277.938 281.697,279.272 277.5,281C 276.54,282.419 275.707,283.919 275,285.5C 274.667,284.833 274.333,284.167 274,283.5C 270.412,284.724 267.078,286.39 264,288.5C 261.663,288.101 259.163,288.101 256.5,288.5C 260.94,286.376 265.607,284.543 270.5,283C 274.919,280.373 279.419,277.873 284,275.5C 282.901,271.866 281.067,268.532 278.5,265.5C 281.044,265.896 283.211,265.229 285,263.5C 286.537,260.193 286.87,256.86 286,253.5C 288.692,251.138 291.359,248.804 294,246.5C 293.761,242.787 295.261,240.121 298.5,238.5C 296.608,235.956 294.775,235.956 293,238.5C 291.667,237.167 290.333,237.167 289,238.5C 286.528,235.46 283.528,233.126 280,231.5C 276.716,233.616 277.049,235.282 281,236.5C 281.772,236.355 282.439,236.022 283,235.5C 284.98,238.604 286.48,241.937 287.5,245.5C 287.167,246.167 286.833,246.833 286.5,247.5C 282.382,248.177 278.382,249.177 274.5,250.5C 277.031,247.31 280.198,246.31 284,247.5C 284.826,244.788 284.326,242.455 282.5,240.5C 281.848,239.275 280.681,238.608 279,238.5C 274.347,239.075 270.513,241.075 267.5,244.5C 261.71,248.357 259.71,253.357 261.5,259.5C 260.721,261.927 259.554,261.927 258,259.5C 257.504,257.965 257.67,256.465 258.5,255C 257.681,253.681 256.681,252.515 255.5,251.5C 254.575,252.641 253.741,252.641 253,251.5C 253.121,248.079 251.788,245.412 249,243.5C 246.679,245.916 244.845,248.583 243.5,251.5C 241.904,248.3 242.57,245.466 245.5,243C 244.262,243.077 243.262,242.911 242.5,242.5C 243.32,240.889 244.654,240.222 246.5,240.5C 246.811,241.478 247.478,242.145 248.5,242.5C 253.438,234.223 260.438,228.556 269.5,225.5C 270.962,227.255 272.795,228.588 275,229.5C 281.912,227.326 288.578,224.659 295,221.5C 295.798,223.259 295.631,224.926 294.5,226.5C 293.319,227.515 292.319,228.681 291.5,230C 291.57,230.765 291.903,231.265 292.5,231.5 Z"/></g>
<g><path style="opacity:1" fill="#25273b" d="M 164.5,204.5 C 166.093,209.02 168.26,213.353 171,217.5C 174.169,221.764 175.003,221.431 173.5,216.5C 173.34,214.801 173.506,213.134 174,211.5C 174.561,210.978 175.228,210.645 176,210.5C 186.35,223.422 199.85,229.422 216.5,228.5C 216.631,229.376 216.298,230.043 215.5,230.5C 210.877,229.818 206.377,229.818 202,230.5C 193.964,227.6 186.298,223.933 179,219.5C 178.333,220.5 178.333,221.5 179,222.5C 180.255,223.211 181.421,224.044 182.5,225C 180.714,225.196 179.381,226.029 178.5,227.5C 180.713,229.542 181.38,231.875 180.5,234.5C 181.18,235.86 181.847,237.193 182.5,238.5C 179.63,237.567 177.296,235.9 175.5,233.5C 174.199,232.36 173.032,231.027 172,229.5C 170.471,230.729 169.304,232.229 168.5,234C 167.552,234.483 166.552,234.649 165.5,234.5C 165.626,236.2 166.293,237.7 167.5,239C 166.014,239.251 165.014,240.585 164.5,243C 163.833,243.667 163.167,243.667 162.5,243C 160.937,242.241 159.937,241.074 159.5,239.5C 160.708,240.234 162.041,240.567 163.5,240.5C 163.759,235.056 165.426,230.056 168.5,225.5C 166.388,222.25 164.055,219.25 161.5,216.5C 159.7,211.635 158.367,206.635 157.5,201.5C 157.552,197.802 157.886,194.135 158.5,190.5C 159.5,190.5 160.5,190.5 161.5,190.5C 161.334,194.514 161.501,198.514 162,202.5C 162.417,203.756 163.25,204.423 164.5,204.5 Z"/></g>
<g><path style="opacity:1" fill="#d8a198" d="M 304.5,216.5 C 306.7,218.64 309.367,220.14 312.5,221C 313.337,222.011 313.67,223.178 313.5,224.5C 311.456,227.231 309.789,230.231 308.5,233.5C 306.581,234.612 304.914,235.946 303.5,237.5C 300.37,234.746 296.704,232.746 292.5,231.5C 295.478,228.187 298.478,224.853 301.5,221.5C 302.11,219.566 303.11,217.899 304.5,216.5 Z"/></g>
<g><path style="opacity:1" fill="#f19f8a" d="M 301.5,221.5 C 304.655,218.97 307.655,219.304 310.5,222.5C 310.931,223.293 311.265,224.127 311.5,225C 309.018,228.313 306.018,231.147 302.5,233.5C 300.158,232.664 298.158,231.33 296.5,229.5C 298.689,227.113 300.356,224.447 301.5,221.5 Z"/></g>
<g><path style="opacity:1" fill="#1f263a" d="M 75.5,207.5 C 77.5723,210.869 79.5723,214.369 81.5,218C 81.1667,218.333 80.8333,218.667 80.5,219C 81.5,219.333 82.5,219.667 83.5,220C 83.9302,220.92 84.2635,221.753 84.5,222.5C 86.1667,220.833 87.1667,221.167 87.5,223.5C 84.9456,226.331 84.9456,229.165 87.5,232C 90.3566,232.214 93.1899,232.381 96,232.5C 95.8415,228.159 95.6748,223.825 95.5,219.5C 99.9854,227.8 104.985,235.8 110.5,243.5C 107.649,242.677 104.982,241.344 102.5,239.5C 99.6169,239.872 96.6169,239.872 93.5,239.5C 93.5,240.5 93.5,241.5 93.5,242.5C 95.1238,242.64 96.2904,241.973 97,240.5C 98.3561,241.38 99.8561,241.714 101.5,241.5C 101.628,243.655 101.128,245.655 100,247.5C 99.6667,246.833 99.3333,246.167 99,245.5C 97.583,246.078 96.7496,247.078 96.5,248.5C 86.6285,236.426 79.6285,222.759 75.5,207.5 Z"/></g>
<g><path style="opacity:1" fill="#c7958e" d="M 149.5,226.5 C 147.167,228.167 145.167,230.167 143.5,232.5C 140.847,233.676 138.181,234.509 135.5,235C 137.399,232.012 139.399,229.179 141.5,226.5C 141.238,227.978 141.571,229.311 142.5,230.5C 144.504,228.995 146.337,227.328 148,225.5C 148.765,225.57 149.265,225.903 149.5,226.5 Z"/></g>
<g><path style="opacity:1" fill="#bec9ce" d="M 270.5,230.5 C 272.429,230.231 274.095,230.731 275.5,232C 266.457,235.854 259.457,242.02 254.5,250.5C 253.401,247.641 253.901,244.974 256,242.5C 260.259,237.646 265.092,233.646 270.5,230.5 Z"/></g>
<g><path style="opacity:1" fill="#bcc3c8" d="M 269.5,225.5 C 260.438,228.556 253.438,234.223 248.5,242.5C 247.478,242.145 246.811,241.478 246.5,240.5C 251.077,232.521 257.744,226.854 266.5,223.5C 268.038,223.453 269.038,224.12 269.5,225.5 Z"/></g>
<g><path style="opacity:1" fill="#1f2c3f" d="M 223.5,248.5 C 222.262,247.588 220.928,247.421 219.5,248C 212.933,253.413 206.267,258.579 199.5,263.5C 197.208,264.624 195.042,265.957 193,267.5C 191.5,267.333 190.667,266.5 190.5,265C 191.544,263.826 192.544,262.659 193.5,261.5C 201.717,256.464 209.55,250.798 217,244.5C 216.879,241.336 215.379,238.836 212.5,237C 211.5,236.333 210.5,236.333 209.5,237C 201.137,243.176 192.804,249.342 184.5,255.5C 180.805,259.715 177.639,264.382 175,269.5C 174.329,270.252 173.496,270.586 172.5,270.5C 167.685,268.928 163.352,266.595 159.5,263.5C 162.652,263.047 165.152,264.047 167,266.5C 168.395,265.185 169.395,265.519 170,267.5C 174.753,267.107 176.753,264.773 176,260.5C 176.333,261.167 176.667,261.833 177,262.5C 177.695,258.712 179.528,255.712 182.5,253.5C 183.378,250.87 184.045,248.203 184.5,245.5C 187.523,245.895 188.523,244.895 187.5,242.5C 188.145,241.354 188.978,240.354 190,239.5C 192.456,240.15 194.79,241.15 197,242.5C 199.582,240.307 202.082,237.974 204.5,235.5C 208.118,234.654 211.785,234.32 215.5,234.5C 215.656,238.135 216.822,238.468 219,235.5C 219.678,238.267 221.178,240.434 223.5,242C 219.629,242.641 218.962,244.141 221.5,246.5C 223.214,245.391 223.881,246.058 223.5,248.5 Z"/></g>
<g><path style="opacity:1" fill="#d19992" d="M 243.5,271.5 C 243.5,272.833 243.5,274.167 243.5,275.5C 241.708,275.366 240.042,275.699 238.5,276.5C 237.981,268.762 236.981,261.096 235.5,253.5C 234.306,249.637 231.973,246.637 228.5,244.5C 226.42,240.914 223.754,237.747 220.5,235C 221.593,233.635 222.926,233.301 224.5,234C 228.967,239.468 233.8,244.635 239,249.5C 240.198,256.994 241.698,264.327 243.5,271.5 Z"/></g>
<g><path style="opacity:1" fill="#1e253f" d="M 278.5,265.5 C 278.611,264.883 278.944,264.383 279.5,264C 276.446,261.758 273.446,260.258 270.5,259.5C 271.325,257.199 271.992,254.865 272.5,252.5C 272.833,251.5 273.5,250.833 274.5,250.5C 278.382,249.177 282.382,248.177 286.5,247.5C 286.833,246.833 287.167,246.167 287.5,245.5C 286.48,241.937 284.98,238.604 283,235.5C 282.439,236.022 281.772,236.355 281,236.5C 277.049,235.282 276.716,233.616 280,231.5C 283.528,233.126 286.528,235.46 289,238.5C 290.333,237.167 291.667,237.167 293,238.5C 294.775,235.956 296.608,235.956 298.5,238.5C 295.261,240.121 293.761,242.787 294,246.5C 291.359,248.804 288.692,251.138 286,253.5C 286.87,256.86 286.537,260.193 285,263.5C 283.211,265.229 281.044,265.896 278.5,265.5 Z"/></g>
<g><path style="opacity:1" fill="#c8dfd7" d="M 282.5,240.5 C 282.034,242.201 282.034,243.701 282.5,245C 278.658,245.198 275.492,246.698 273,249.5C 270.672,248.336 268.838,246.67 267.5,244.5C 270.513,241.075 274.347,239.075 279,238.5C 280.681,238.608 281.848,239.275 282.5,240.5 Z"/></g>
<g><path style="opacity:1" fill="#20263e" d="M 212.5,211.5 C 211.475,211.897 211.308,212.563 212,213.5C 215.667,216.5 219.333,219.5 223,222.5C 223.49,221.207 223.657,219.873 223.5,218.5C 224.327,211.675 227.327,206.009 232.5,201.5C 234.05,200.559 235.716,199.893 237.5,199.5C 244.815,198.864 252.148,198.364 259.5,198C 263.76,194.692 267.927,191.192 272,187.5C 272.672,195.382 272.505,203.382 271.5,211.5C 270.36,212.801 269.027,213.968 267.5,215C 269.251,217.828 271.251,220.495 273.5,223C 272.968,225.02 271.635,225.853 269.5,225.5C 269.038,224.12 268.038,223.453 266.5,223.5C 257.744,226.854 251.077,232.521 246.5,240.5C 244.654,240.222 243.32,240.889 242.5,242.5C 243.262,242.911 244.262,243.077 245.5,243C 242.57,245.466 241.904,248.3 243.5,251.5C 244.845,248.583 246.679,245.916 249,243.5C 251.788,245.412 253.121,248.079 253,251.5C 253.741,252.641 254.575,252.641 255.5,251.5C 256.681,252.515 257.681,253.681 258.5,255C 257.67,256.465 257.504,257.965 258,259.5C 259.554,261.927 260.721,261.927 261.5,259.5C 262.708,260.234 264.041,260.567 265.5,260.5C 266.263,261.268 267.263,261.768 268.5,262C 268.335,263.117 268.002,264.284 267.5,265.5C 264.901,266.031 262.235,266.198 259.5,266C 258.124,268.543 256.957,268.709 256,266.5C 255.316,267.784 255.483,268.951 256.5,270C 255.234,270.309 254.067,270.809 253,271.5C 252.667,271.167 252.333,270.833 252,270.5C 251.311,271.357 250.478,272.023 249.5,272.5C 248.28,271.289 247.113,271.289 246,272.5C 244.705,271.159 244.205,269.826 244.5,268.5C 243.614,269.325 243.281,270.325 243.5,271.5C 241.698,264.327 240.198,256.994 239,249.5C 233.8,244.635 228.967,239.468 224.5,234C 222.926,233.301 221.593,233.635 220.5,235C 223.754,237.747 226.42,240.914 228.5,244.5C 230.458,247.792 232.791,250.792 235.5,253.5C 236.981,261.096 237.981,268.762 238.5,276.5C 236.236,277.219 233.903,277.552 231.5,277.5C 231.483,272.07 230.817,266.737 229.5,261.5C 229.073,258.99 228.407,256.657 227.5,254.5C 226.167,252.5 224.833,250.5 223.5,248.5C 223.881,246.058 223.214,245.391 221.5,246.5C 218.962,244.141 219.629,242.641 223.5,242C 221.178,240.434 219.678,238.267 219,235.5C 216.822,238.468 215.656,238.135 215.5,234.5C 211.785,234.32 208.118,234.654 204.5,235.5C 202.082,237.974 199.582,240.307 197,242.5C 194.79,241.15 192.456,240.15 190,239.5C 188.978,240.354 188.145,241.354 187.5,242.5C 188.523,244.895 187.523,245.895 184.5,245.5C 184.045,248.203 183.378,250.87 182.5,253.5C 179.528,255.712 177.695,258.712 177,262.5C 176.667,261.833 176.333,261.167 176,260.5C 176.753,264.773 174.753,267.107 170,267.5C 169.395,265.519 168.395,265.185 167,266.5C 165.152,264.047 162.652,263.047 159.5,263.5C 148.052,257.393 138.052,249.393 129.5,239.5C 129.595,236.642 130.762,234.309 133,232.5C 133.242,234.138 134.075,235.638 135.5,237C 134.549,237.718 134.383,238.551 135,239.5C 137.717,238.371 140.217,236.871 142.5,235C 143.252,234.329 143.586,233.496 143.5,232.5C 145.167,230.167 147.167,228.167 149.5,226.5C 151.637,231.783 154.97,236.116 159.5,239.5C 159.937,241.074 160.937,242.241 162.5,243C 163.167,243.667 163.833,243.667 164.5,243C 165.014,240.585 166.014,239.251 167.5,239C 166.293,237.7 165.626,236.2 165.5,234.5C 166.552,234.649 167.552,234.483 168.5,234C 169.304,232.229 170.471,230.729 172,229.5C 173.032,231.027 174.199,232.36 175.5,233.5C 172.827,233.684 172.16,234.851 173.5,237C 176.968,238.97 180.301,241.136 183.5,243.5C 184.308,243.192 184.975,242.692 185.5,242C 184.29,240.961 183.29,239.794 182.5,238.5C 181.847,237.193 181.18,235.86 180.5,234.5C 181.38,231.875 180.713,229.542 178.5,227.5C 179.381,226.029 180.714,225.196 182.5,225C 181.421,224.044 180.255,223.211 179,222.5C 178.333,221.5 178.333,220.5 179,219.5C 186.298,223.933 193.964,227.6 202,230.5C 206.377,229.818 210.877,229.818 215.5,230.5C 216.298,230.043 216.631,229.376 216.5,228.5C 216.611,227.883 216.944,227.383 217.5,227C 199.695,214.161 190.028,196.661 188.5,174.5C 189.341,172.621 189.675,170.621 189.5,168.5C 190.822,168.33 191.989,168.663 193,169.5C 193.54,179.663 195.873,188.997 200,197.5C 205.272,199.433 210.772,200.433 216.5,200.5C 216.5,202.5 216.5,204.5 216.5,206.5C 214.071,206.116 211.737,205.449 209.5,204.5C 209.5,205.5 209.5,206.5 209.5,207.5C 210.5,207.5 211.5,207.5 212.5,207.5C 212.5,208.833 212.5,210.167 212.5,211.5 Z"/></g>
<g><path style="opacity:1" fill="#c4ddd7" d="M 193.5,261.5 C 189.912,260.222 186.912,258.222 184.5,255.5C 192.804,249.342 201.137,243.176 209.5,237C 210.5,236.333 211.5,236.333 212.5,237C 215.379,238.836 216.879,241.336 217,244.5C 209.55,250.798 201.717,256.464 193.5,261.5 Z"/></g>
<g><path style="opacity:1" fill="#492f34" d="M 228.5,244.5 C 231.973,246.637 234.306,249.637 235.5,253.5C 232.791,250.792 230.458,247.792 228.5,244.5 Z"/></g>
<g><path style="opacity:1" fill="#ca9492" d="M 175.5,233.5 C 177.296,235.9 179.63,237.567 182.5,238.5C 183.29,239.794 184.29,240.961 185.5,242C 184.975,242.692 184.308,243.192 183.5,243.5C 180.301,241.136 176.968,238.97 173.5,237C 172.16,234.851 172.827,233.684 175.5,233.5 Z"/></g>
<g><path style="opacity:1" fill="#bdc3ca" d="M 258.5,216.5 C 260.288,216.215 261.955,216.548 263.5,217.5C 255.019,220.977 248.352,226.644 243.5,234.5C 242.176,235.687 241.176,235.354 240.5,233.5C 244.837,226.011 250.837,220.344 258.5,216.5 Z"/></g>
<g><path style="opacity:1" fill="#cf9898" d="M 217.5,209.5 C 216.826,211.024 215.826,212.358 214.5,213.5C 216.35,215.518 218.35,217.351 220.5,219C 221.577,219.47 222.577,219.303 223.5,218.5C 223.657,219.873 223.49,221.207 223,222.5C 219.333,219.5 215.667,216.5 212,213.5C 211.308,212.563 211.475,211.897 212.5,211.5C 214.05,210.559 215.716,209.893 217.5,209.5 Z"/></g>
<g><path style="opacity:1" fill="#c6bfc0" d="M 238.5,206.5 C 239.556,210.168 240.722,213.835 242,217.5C 242.671,218.252 243.504,218.586 244.5,218.5C 241.551,221.788 238.551,225.121 235.5,228.5C 228.278,220.281 229.278,212.948 238.5,206.5 Z"/></g>
<g><path style="opacity:1" fill="#c9ddd9" d="M 244.5,218.5 C 243.504,218.586 242.671,218.252 242,217.5C 240.722,213.835 239.556,210.168 238.5,206.5C 246.209,201.421 252.543,202.754 257.5,210.5C 252.61,212.436 248.276,215.103 244.5,218.5 Z"/></g>
<g><path style="opacity:1" fill="#e7a08e" d="M 217.5,199.5 C 222.602,200.121 227.602,200.787 232.5,201.5C 227.327,206.009 224.327,211.675 223.5,218.5C 222.577,219.303 221.577,219.47 220.5,219C 218.35,217.351 216.35,215.518 214.5,213.5C 215.826,212.358 216.826,211.024 217.5,209.5C 217.5,206.167 217.5,202.833 217.5,199.5 Z"/></g>
<g><path style="opacity:1" fill="#c3c0c1" d="M 282.5,240.5 C 284.326,242.455 284.826,244.788 284,247.5C 280.198,246.31 277.031,247.31 274.5,250.5C 273.5,250.833 272.833,251.5 272.5,252.5C 269.593,254.315 268.259,256.981 268.5,260.5C 267.5,260.5 266.5,260.5 265.5,260.5C 264.041,260.567 262.708,260.234 261.5,259.5C 259.71,253.357 261.71,248.357 267.5,244.5C 268.838,246.67 270.672,248.336 273,249.5C 275.492,246.698 278.658,245.198 282.5,245C 282.034,243.701 282.034,242.201 282.5,240.5 Z"/></g>
<g><path style="opacity:1" fill="#20273b" d="M 336.5,216.5 C 336.216,220.929 335.216,224.429 333.5,227C 333.748,228.716 334.415,230.216 335.5,231.5C 333.862,234.304 332.029,236.971 330,239.5C 329.667,238.833 329.333,238.167 329,237.5C 327.981,238.687 326.814,239.687 325.5,240.5C 324.269,241.651 324.269,242.817 325.5,244C 324.333,244.5 323.5,245.333 323,246.5C 322.667,245.833 322.333,245.167 322,244.5C 318.87,246.614 316.703,249.447 315.5,253C 316.289,253.546 317.289,254.213 318.5,255C 317.5,255.333 316.5,255.667 315.5,256C 318.371,258.84 318.037,261.174 314.5,263C 315,263.5 315.5,264 316,264.5C 317.825,263.897 319.659,263.23 321.5,262.5C 322.012,259.649 323.679,258.316 326.5,258.5C 326.5,257.5 326.5,256.5 326.5,255.5C 327.5,255.5 328.5,255.5 329.5,255.5C 322.46,264.874 314.126,272.874 304.5,279.5C 306.927,275.895 309.593,272.395 312.5,269C 311.874,268.25 311.374,267.416 311,266.5C 308.836,270.908 306.336,271.242 303.5,267.5C 302.808,268.025 302.308,268.692 302,269.5C 301.667,269.167 301.333,268.833 301,268.5C 298.508,269.251 296.841,270.251 296,271.5C 293.283,271.046 292.45,269.712 293.5,267.5C 292.218,265.821 291.218,263.987 290.5,262C 290.728,261.601 291.062,261.435 291.5,261.5C 293.339,262.508 294.672,264.008 295.5,266C 296.167,266.667 296.833,266.667 297.5,266C 314.475,252.505 327.475,236.005 336.5,216.5 Z"/></g>
<g><path style="opacity:1" fill="#25202d" d="M 96.5,249.5 C 99.7301,249.561 101.563,251.228 102,254.5C 108.026,259.419 113.192,265.086 117.5,271.5C 109.145,265.478 102.145,258.145 96.5,249.5 Z"/></g>
<g><path style="opacity:1" fill="#c8dbd5" d="M 223.5,248.5 C 224.833,250.5 226.167,252.5 227.5,254.5C 222.309,258.262 217.309,262.262 212.5,266.5C 212.434,268.266 213.268,269.266 215,269.5C 217.185,266.651 220.018,264.651 223.5,263.5C 222.833,264.5 222.167,265.5 221.5,266.5C 220.038,267.458 218.705,268.624 217.5,270C 215.527,270.495 213.527,270.662 211.5,270.5C 211.5,269.5 211.5,268.5 211.5,267.5C 206.793,267.931 202.793,266.598 199.5,263.5C 206.267,258.579 212.933,253.413 219.5,248C 220.928,247.421 222.262,247.588 223.5,248.5 Z"/></g>
<g><path style="opacity:1" fill="#e5a390" d="M 227.5,254.5 C 228.407,256.657 229.073,258.99 229.5,261.5C 227.678,260.571 226.345,261.238 225.5,263.5C 224.833,263.5 224.167,263.5 223.5,263.5C 220.018,264.651 217.185,266.651 215,269.5C 213.268,269.266 212.434,268.266 212.5,266.5C 217.309,262.262 222.309,258.262 227.5,254.5 Z"/></g>
<g><path style="opacity:1" fill="#9dd2d1" d="M 184.5,255.5 C 186.912,258.222 189.912,260.222 193.5,261.5C 192.544,262.659 191.544,263.826 190.5,265C 190.667,266.5 191.5,267.333 193,267.5C 195.042,265.957 197.208,264.624 199.5,263.5C 202.793,266.598 206.793,267.931 211.5,267.5C 211.5,268.5 211.5,269.5 211.5,270.5C 213.527,270.662 215.527,270.495 217.5,270C 218.705,268.624 220.038,267.458 221.5,266.5C 221.833,270.5 222.167,274.5 222.5,278.5C 214.972,279.661 207.305,279.495 199.5,278C 192.245,275.874 184.911,274.04 177.5,272.5C 175.597,272.204 173.93,271.537 172.5,270.5C 173.496,270.586 174.329,270.252 175,269.5C 177.639,264.382 180.805,259.715 184.5,255.5 Z"/></g>
<g><path style="opacity:1" fill="#222b3d" d="M 272.5,252.5 C 271.992,254.865 271.325,257.199 270.5,259.5C 273.446,260.258 276.446,261.758 279.5,264C 278.944,264.383 278.611,264.883 278.5,265.5C 277.518,264.859 276.518,264.193 275.5,263.5C 265.33,268.889 254.663,272.889 243.5,275.5C 243.5,274.167 243.5,272.833 243.5,271.5C 243.281,270.325 243.614,269.325 244.5,268.5C 244.205,269.826 244.705,271.159 246,272.5C 247.113,271.289 248.28,271.289 249.5,272.5C 250.478,272.023 251.311,271.357 252,270.5C 252.333,270.833 252.667,271.167 253,271.5C 254.067,270.809 255.234,270.309 256.5,270C 255.483,268.951 255.316,267.784 256,266.5C 256.957,268.709 258.124,268.543 259.5,266C 262.235,266.198 264.901,266.031 267.5,265.5C 268.002,264.284 268.335,263.117 268.5,262C 267.263,261.768 266.263,261.268 265.5,260.5C 266.5,260.5 267.5,260.5 268.5,260.5C 268.259,256.981 269.593,254.315 272.5,252.5 Z"/></g>
<g><path style="opacity:1" fill="#1f243e" d="M 110.5,243.5 C 119.919,254.588 130.586,264.255 142.5,272.5C 143.263,274.567 144.596,276.234 146.5,277.5C 150.85,279.845 155.017,282.512 159,285.5C 159.333,285.167 159.667,284.833 160,284.5C 164.16,286.796 168.494,288.796 173,290.5C 174.406,289.332 175.572,289.665 176.5,291.5C 177.812,290.54 179.146,290.706 180.5,292C 183.146,292.497 185.813,292.664 188.5,292.5C 201.108,294.109 213.775,294.775 226.5,294.5C 234.26,293.534 241.594,293.534 248.5,294.5C 249.82,292.73 251.32,292.397 253,293.5C 254.372,292.09 255.205,290.423 255.5,288.5C 255.833,288.5 256.167,288.5 256.5,288.5C 259.163,288.101 261.663,288.101 264,288.5C 267.078,286.39 270.412,284.724 274,283.5C 274.333,284.167 274.667,284.833 275,285.5C 275.707,283.919 276.54,282.419 277.5,281C 281.697,279.272 285.697,277.938 289.5,277C 289.957,276.586 290.291,276.086 290.5,275.5C 288.956,274.378 287.623,274.711 286.5,276.5C 285.289,275.726 285.289,274.893 286.5,274C 285.158,271.985 284.658,269.818 285,267.5C 286.183,268.731 287.349,268.731 288.5,267.5C 287.975,266.808 287.308,266.308 286.5,266C 286.944,264.467 287.277,262.967 287.5,261.5C 288.689,260.571 290.022,260.238 291.5,260.5C 291.5,260.833 291.5,261.167 291.5,261.5C 291.062,261.435 290.728,261.601 290.5,262C 291.218,263.987 292.218,265.821 293.5,267.5C 292.45,269.712 293.283,271.046 296,271.5C 296.841,270.251 298.508,269.251 301,268.5C 301.333,268.833 301.667,269.167 302,269.5C 302.308,268.692 302.808,268.025 303.5,267.5C 306.336,271.242 308.836,270.908 311,266.5C 311.374,267.416 311.874,268.25 312.5,269C 309.593,272.395 306.927,275.895 304.5,279.5C 281.61,297.137 255.61,307.137 226.5,309.5C 211.842,308.922 197.176,307.255 182.5,304.5C 181.584,304.543 180.917,304.876 180.5,305.5C 156.614,299.227 135.614,287.894 117.5,271.5C 113.192,265.086 108.026,259.419 102,254.5C 101.563,251.228 99.7301,249.561 96.5,249.5C 96.5,249.167 96.5,248.833 96.5,248.5C 96.7496,247.078 97.583,246.078 99,245.5C 99.3333,246.167 99.6667,246.833 100,247.5C 101.128,245.655 101.628,243.655 101.5,241.5C 99.8561,241.714 98.3561,241.38 97,240.5C 96.2904,241.973 95.1238,242.64 93.5,242.5C 93.5,241.5 93.5,240.5 93.5,239.5C 96.6169,239.872 99.6169,239.872 102.5,239.5C 104.982,241.344 107.649,242.677 110.5,243.5 Z"/></g>
<g><path style="opacity:1" fill="#23303f" d="M 255.5,288.5 C 255.205,290.423 254.372,292.09 253,293.5C 251.32,292.397 249.82,292.73 248.5,294.5C 241.594,293.534 234.26,293.534 226.5,294.5C 227.492,294.672 228.158,294.338 228.5,293.5C 228.833,293.5 229.167,293.5 229.5,293.5C 238.356,292.786 247.023,291.119 255.5,288.5 Z"/></g>
<g><path style="opacity:1" fill="#1f2d3d" d="M 142.5,272.5 C 147.719,276.277 153.385,279.277 159.5,281.5C 168.799,286.155 178.466,289.822 188.5,292.5C 185.813,292.664 183.146,292.497 180.5,292C 179.146,290.706 177.812,290.54 176.5,291.5C 175.572,289.665 174.406,289.332 173,290.5C 168.494,288.796 164.16,286.796 160,284.5C 159.667,284.833 159.333,285.167 159,285.5C 155.017,282.512 150.85,279.845 146.5,277.5C 144.596,276.234 143.263,274.567 142.5,272.5 Z"/></g>
<g><path style="opacity:1" fill="#c2d9d5" d="M 159.5,281.5 C 161.541,281.854 163.374,281.854 165,281.5C 167.468,282.399 170.135,283.733 173,285.5C 174.813,284.391 175.646,285.058 175.5,287.5C 178.545,287.704 181.379,287.704 184,287.5C 185.438,288.718 187.105,289.385 189,289.5C 191.737,289.624 192.571,288.624 191.5,286.5C 192.333,286.167 193.167,285.833 194,285.5C 197.944,286.405 201.611,287.071 205,287.5C 206,286.833 207,286.167 208,285.5C 211.979,288.125 215.479,287.459 218.5,283.5C 219.794,285.899 221.794,287.399 224.5,288C 224.167,288.333 223.833,288.667 223.5,289C 216.313,289.703 209.147,289.536 202,288.5C 198.75,288.792 195.583,289.458 192.5,290.5C 192.938,291.506 193.604,291.506 194.5,290.5C 205.906,292.02 217.24,293.02 228.5,293.5C 228.158,294.338 227.492,294.672 226.5,294.5C 213.775,294.775 201.108,294.109 188.5,292.5C 178.466,289.822 168.799,286.155 159.5,281.5 Z"/></g>
<g><path style="opacity:1" fill="#c0dbd8" d="M 229.5,261.5 C 230.817,266.737 231.483,272.07 231.5,277.5C 233.903,277.552 236.236,277.219 238.5,276.5C 240.042,275.699 241.708,275.366 243.5,275.5C 254.663,272.889 265.33,268.889 275.5,263.5C 276.518,264.193 277.518,264.859 278.5,265.5C 281.067,268.532 282.901,271.866 284,275.5C 279.419,277.873 274.919,280.373 270.5,283C 265.607,284.543 260.94,286.376 256.5,288.5C 256.167,288.5 255.833,288.5 255.5,288.5C 247.023,291.119 238.356,292.786 229.5,293.5C 232.546,292.013 235.879,291.013 239.5,290.5C 238.478,289.646 237.645,288.646 237,287.5C 233.833,287.667 230.667,287.833 227.5,288C 230.078,286.217 232.911,285.051 236,284.5C 237.938,285.86 239.604,285.527 241,283.5C 241.49,284.793 241.657,286.127 241.5,287.5C 240.448,287.351 239.448,287.517 238.5,288C 239.729,288.781 241.062,289.281 242.5,289.5C 245.355,288.883 248.022,287.883 250.5,286.5C 253.753,288.112 255.92,287.112 257,283.5C 258.16,285.797 259.16,285.464 260,282.5C 260.333,282.833 260.667,283.167 261,283.5C 263.74,282.718 266.574,282.218 269.5,282C 270.5,279.667 272.167,278 274.5,277C 274.167,276.667 273.833,276.333 273.5,276C 275.92,276.988 278.253,276.655 280.5,275C 281.337,273.989 281.67,272.822 281.5,271.5C 280.448,271.649 279.448,271.483 278.5,271C 276.091,266.658 273.091,266.324 269.5,270C 271.116,270.615 272.449,271.615 273.5,273C 269.654,276.75 267.321,275.916 266.5,270.5C 261.852,271.814 258.852,274.814 257.5,279.5C 257.693,278.312 257.193,276.978 256,275.5C 252.253,275.204 248.92,276.538 246,279.5C 242.266,276.036 238.766,276.536 235.5,281C 233.144,281.155 230.811,281.155 228.5,281C 227.271,282.529 225.771,283.696 224,284.5C 219.222,282.682 214.222,281.349 209,280.5C 207.853,281.458 206.853,281.125 206,279.5C 201.177,280.771 196.343,280.605 191.5,279C 187.966,276.819 184.133,275.319 180,274.5C 177.922,275.943 177.089,275.276 177.5,272.5C 184.911,274.04 192.245,275.874 199.5,278C 207.305,279.495 214.972,279.661 222.5,278.5C 224.167,278.5 225.833,278.5 227.5,278.5C 226.833,273.5 226.167,268.5 225.5,263.5C 226.345,261.238 227.678,260.571 229.5,261.5 Z"/></g>
<g><path style="opacity:1" fill="#456a7f" d="M 223.5,263.5 C 224.167,263.5 224.833,263.5 225.5,263.5C 226.167,268.5 226.833,273.5 227.5,278.5C 225.833,278.5 224.167,278.5 222.5,278.5C 222.167,274.5 221.833,270.5 221.5,266.5C 222.167,265.5 222.833,264.5 223.5,263.5 Z"/></g>
<g><path style="opacity:1" fill="#1a1625" d="M 180.5,305.5 C 180.917,304.876 181.584,304.543 182.5,304.5C 197.176,307.255 211.842,308.922 226.5,309.5C 210.953,310.314 195.62,308.98 180.5,305.5 Z"/></g>
</svg>
